<?xml version="1.0" encoding="UTF-8" standalone="no"?>
<!-- Created with Inkscape (http://www.inkscape.org/) -->

<svg
   xmlns:dc="http://purl.org/dc/elements/1.1/"
   xmlns:cc="http://creativecommons.org/ns#"
   xmlns:rdf="http://www.w3.org/1999/02/22-rdf-syntax-ns#"
   xmlns:svg="http://www.w3.org/2000/svg"
   xmlns="http://www.w3.org/2000/svg"
   xmlns:sodipodi="http://sodipodi.sourceforge.net/DTD/sodipodi-0.dtd"
   xmlns:inkscape="http://www.inkscape.org/namespaces/inkscape"
   width="70.492607mm"
   height="15.546667mm"
   viewBox="0 0 249.77695 55.086615"
   id="svg2"
   version="1.1"
   inkscape:version="0.91 r13725"
   sodipodi:docname="logo_text-data.svg"
   inkscape:export-filename="C:\Users\Robbie\Documents\Git Repositories\DictionaryBuilder\images\logo.png"
   inkscape:export-xdpi="90"
   inkscape:export-ydpi="90">
  <defs
     id="defs4" />
  <sodipodi:namedview
     id="base"
     pagecolor="#ffffff"
     bordercolor="#666666"
     borderopacity="1.0"
     inkscape:pageopacity="0.0"
     inkscape:pageshadow="2"
     inkscape:zoom="2.8284271"
     inkscape:cx="115.33417"
     inkscape:cy="-29.324699"
     inkscape:document-units="px"
     inkscape:current-layer="layer1"
     showgrid="false"
     fit-margin-top="1"
     fit-margin-left="1"
     fit-margin-right="1"
     fit-margin-bottom="1"
     inkscape:window-width="1600"
     inkscape:window-height="837"
     inkscape:window-x="-8"
     inkscape:window-y="-8"
     inkscape:window-maximized="1" />
  <metadata
     id="metadata7">
    <rdf:RDF>
      <cc:Work
         rdf:about="">
        <dc:format>image/svg+xml</dc:format>
        <dc:type
           rdf:resource="http://purl.org/dc/dcmitype/StillImage" />
        <dc:title></dc:title>
      </cc:Work>
    </rdf:RDF>
  </metadata>
  <g
     inkscape:label="Layer 1"
     inkscape:groupmode="layer"
     id="layer1"
     transform="translate(-107.53102,-155.84245)">
    <g
       id="g4154"
       transform="matrix(0.2672688,0,0,0.2672688,81.387627,140.5551)">
      <path
         sodipodi:nodetypes="ccccc"
         inkscape:connector-curvature="0"
         id="rect4136"
         d="m 234.39344,70.455884 -42.42641,83.842656 -80.8927,0 42.42641,-83.842656 z"
         style="opacity:1;fill:#ff5500;fill-opacity:1;stroke:none;stroke-width:1;stroke-linecap:round;stroke-linejoin:round;stroke-miterlimit:4;stroke-dasharray:none;stroke-dashoffset:0;stroke-opacity:1" />
      <path
         sodipodi:nodetypes="ccccc"
         inkscape:connector-curvature="0"
         id="rect4138"
         d="m 191.96703,162.45587 42.42641,83.84266 -80.8927,0 -42.42641,-83.84266 z"
         style="opacity:1;fill:#ff5500;fill-opacity:1;stroke:none;stroke-width:1;stroke-linecap:round;stroke-linejoin:round;stroke-miterlimit:4;stroke-dasharray:none;stroke-dashoffset:0;stroke-opacity:1" />
    </g>
    <g
       style="font-style:normal;font-variant:normal;font-weight:normal;font-stretch:normal;font-size:6.55362368px;line-height:125%;font-family:'04b03';-inkscape-font-specification:'04b03';letter-spacing:0px;word-spacing:0px;fill:#ff5400;fill-opacity:1;stroke:none;stroke-width:1px;stroke-linecap:butt;stroke-linejoin:miter;stroke-opacity:1"
       id="text4142">
      <path
         d="m 160.10237,186.7615 0,7.00419 -6.10562,0 q -1.24417,0 -1.77409,0.36864 -0.50688,0.36864 -0.50688,1.24416 0,0.99072 0.52992,1.31329 0.52992,0.29952 2.16577,0.29952 l 6.28994,0 0,8.98563 -7.34978,0 q -5.18402,0 -7.92579,-2.46529 -2.74177,-2.48833 -2.74177,-7.16547 l 0,-12.32644 q 0,-4.51586 2.58049,-7.00418 2.60353,-2.48833 7.3037,-2.48833 l 8.13315,0 0,9.03171 -5.96738,0 q -2.41921,0 -2.41921,1.56672 0,0.92161 0.576,1.29025 0.57601,0.3456 2.05057,0.3456 l 5.16098,0 z"
         style="font-style:normal;font-variant:normal;font-weight:normal;font-stretch:normal;font-size:47.18608856px;font-family:'Bauhaus 93';-inkscape-font-specification:'Bauhaus 93, ';fill:#ff5400;fill-opacity:1"
         id="path4726" />
      <path
         d="m 187.75047,174.52722 -8.17923,15.29861 8.45571,16.1511 -9.83812,0 -3.87073,-7.62627 -3.27169,7.62627 -9.67684,0 8.64004,-15.89766 -8.17923,-15.55205 9.74595,0 3.66337,7.14242 2.94913,-7.14242 9.56164,0 z"
         style="font-style:normal;font-variant:normal;font-weight:normal;font-stretch:normal;font-size:47.18608856px;font-family:'Bauhaus 93';-inkscape-font-specification:'Bauhaus 93, ';fill:#ff5400;fill-opacity:1"
         id="path4728" />
      <path
         d="m 198.94795,174.52722 0,31.44971 -9.35428,0 0,-31.44971 9.35428,0 z"
         style="font-style:normal;font-variant:normal;font-weight:normal;font-stretch:normal;font-size:47.18608856px;font-family:'Bauhaus 93';-inkscape-font-specification:'Bauhaus 93, ';fill:#ff5400;fill-opacity:1"
         id="path4730" />
    </g>
    <g
       style="font-style:normal;font-variant:normal;font-weight:normal;font-stretch:normal;font-size:6.32758331px;line-height:125%;font-family:'04b03';-inkscape-font-specification:'04b03';letter-spacing:0px;word-spacing:0px;fill:#d70000;fill-opacity:1;stroke:none;stroke-width:1px;stroke-linecap:butt;stroke-linejoin:miter;stroke-opacity:1"
       id="text4146">
      <path
         d="m 218.49914,205.38118 -3.23466,0 q -7.6994,0 -10.11401,-3.91804 -1.82234,-2.9613 -1.82234,-11.48076 0,-7.51717 1.82234,-10.47848 2.41461,-3.91804 9.29396,-3.91804 l 4.73809,0 q 6.56044,0 8.79281,1.8679 2.55128,2.14126 2.55128,8.4739 -0.77449,-0.13667 -1.41231,-0.13667 -0.68338,0 -2.05014,0.13667 -1.36676,0.13668 -2.0957,0.13668 l -1.77678,-0.13668 q 0,-2.50572 -1.59455,-3.37133 -1.09341,-0.59227 -3.69025,-0.59227 l -1.8679,0 q -3.32578,0 -4.55586,1.86791 -0.95673,1.45787 -0.95673,4.64697 0,1.18453 0.0456,3.09799 0.0911,1.91346 0.0911,1.95902 0,4.00916 1.77679,4.92033 1.04785,0.5467 5.64927,0.5467 2.18681,0 3.00686,-0.22779 2.0957,-0.59226 2.0957,-3.64469 0.45558,-0.13668 1.13896,-0.27335 0.72894,-0.13668 1.18453,-0.13668 0.68338,0 2.05013,0.2278 1.36676,0.22779 2.0957,0.22779 0.5467,0 0.86561,-0.0456 0,6.606 -2.77907,8.61057 -2.23237,1.64011 -9.2484,1.64011 z m 3.00687,-31.20764 q 3.82692,0.68338 7.06158,1.549 0.63782,1.00229 1.09341,2.14125 0.50114,1.13897 0.50114,2.00458 l -1.59455,-3.05243 -3.59913,-1.41231 q -1.45787,-0.18224 -2.18681,-0.18224 -0.68338,0 -1.64011,0 l -3.87248,0 q 1.04785,-0.13667 2.18681,-0.36447 1.64011,-0.36447 2.05014,-0.68338 z m 10.79739,13.30312 q -0.50115,0 -2.18681,-0.45559 -0.82006,-0.22779 -1.36676,-0.22779 -0.27335,0 -0.63782,0.0911 -0.31891,0.0456 -0.82006,0.2278 -1.73122,-0.18224 -2.73351,-0.31891 -1.00229,-0.13668 -1.09341,-0.31891 l 4.55586,-0.13668 q 0.7745,0 1.50343,0 0.72894,0 1.59455,0.13668 l -0.0911,-8.01832 q 0.22779,2.14126 0.59226,4.32807 0.36447,2.14125 0.95673,4.69254 l -0.27335,0 z m -0.59226,13.5309 -1.23009,-0.22779 0.31891,-0.59227 q 0.0456,-0.0911 0.0456,-0.91117 l 0,-1.36676 q 0,-0.91117 0.2278,-1.8679 0.22779,-1.00229 0.50114,-1.95902 l 0.13668,5.14812 0,1.77679 z m -23.28045,-25.60393 q 0.13668,-0.0456 0.63782,-0.31891 0.54671,-0.27336 0.72894,-0.27336 l 0.13668,0.18224 q 0.22779,0 0.68338,-0.22779 0.50114,-0.27336 0.72893,-0.36447 0.2278,-0.0911 1.68567,-0.13668 1.45788,-0.0911 2.77908,-0.0911 l -3.73581,0.68338 -3.64469,0.54671 z m 8.65614,-0.59227 -0.95673,0.36447 -1.91346,-0.13667 q 1.32119,-0.41003 2.68795,-0.82006 l 2.36905,-0.13667 q -0.5467,0.13667 -1.00229,0.27335 -0.41003,0.0911 -1.18452,0.45558 z m -5.78595,14.03205 q 0,-0.5467 0.0911,-1.00229 0.13668,-0.50114 0.36447,-1.13896 l 0,0.50114 q 0,0.13668 0.31891,2.14126 0.0911,0.59226 0.0911,1.27564 l 0,5.55815 -0.86562,-4.14584 0.18224,-0.59226 q 0,-0.0911 -0.0911,-1.13896 -0.0911,-1.04785 -0.0911,-1.45788 z m 0.72894,-5.42147 0.82006,-0.63782 q -0.36447,0.82005 -0.36447,1.64011 l 0,0.31891 -0.68338,1.36676 0.22779,-2.68796 z m 0.45559,13.7587 q 0.18223,0.0455 1.00229,0.31891 1.0934,0.27335 1.68567,0.27335 l 3.32577,-0.68338 q 0.27335,-0.0456 1.00229,-0.18224 0.7745,0 1.59455,0 l 1.41232,-2.46016 q -0.36447,1.04785 -0.45559,1.45788 -0.22779,0.86561 -0.22779,1.45787 l 0.0911,0.22779 0.13667,-0.0456 q -4.23695,0.41002 -8.4739,0.77449 l -1.0934,-1.13896 z m 19.18017,4.96588 q -0.68338,0.63782 -1.68567,1.27564 -0.95673,0.63782 -1.73123,0.91118 0.41003,-0.36447 1.27564,-1.09341 0.50115,-0.45559 1.13897,-1.18452 l 1.00229,0.0911 z m -4.82921,3.4169 -1.50344,0.0456 2.73352,-1.09341 q -0.31891,0.22779 -0.63782,0.50115 -0.31891,0.22779 -0.59226,0.5467 z m -24.92056,-21.64034 -0.13667,-4.5103 1.59455,-2.27793 q 1.00229,-0.22779 1.64011,-0.77449 0.95673,-1.04785 1.95902,-2.14126 0.31891,-0.31891 1.77678,-0.45558 1.45788,-0.13668 3.9636,-0.2278 -1.00229,0.2278 -2.05014,0.50115 -1.04784,0.22779 -1.95902,0.50114 -1.77678,0.63782 -3.78136,2.23237 -2.4146,1.91347 -2.59684,3.46246 l -0.41003,3.69024 z m 5.37592,22.2326 q -2.68796,-2.73352 -3.9636,-7.47161 -1.00229,-3.78136 -1.00229,-8.51946 0.22779,1.59455 0.68338,4.64698 0.45559,3.00687 1.18452,5.01145 0.13668,0.41002 0.45559,1.27564 0.31891,0.86561 0.63782,1.36675 l 1.64011,2.18682 0.36447,1.50343 z m -4.96589,-16.81112 0,-2.87019 q 0,-0.41003 0.50115,-2.73352 0.50114,-2.32349 1.3212,-5.64927 0.27335,-0.18223 1.77678,-1.18452 1.54899,-1.04785 1.59455,-1.41232 l 0.95673,0.82006 q -0.63782,0.0911 -1.8679,0.86561 -0.86561,0.54671 -1.68567,1.23008 -0.18223,0.95673 -0.50114,1.91347 -0.27335,0.95673 -0.63782,1.68566 0,0.0456 -0.31891,0.45559 -0.13668,0.22779 -0.18224,0.41003 l -0.95673,6.46932 z m 20.95696,16.44665 q 0.59226,0 0.86561,0.0911 -2.14125,0.45558 -4.69254,0.95673 -2.50572,0.5467 -3.69024,0.5467 -1.36676,0 -3.28022,-0.27335 -1.8679,-0.27335 -3.1891,-0.63782 l -0.72894,-1.04785 5.96818,0.7745 q 0.27335,0.0456 0.91117,-0.0456 0.68338,-0.0911 0.82005,-0.0911 0.0911,0 1.04785,0.0911 1.00229,0.0911 1.36676,0.0911 0.59226,0 2.91575,-0.31891 1.00229,-0.13668 1.68567,-0.13668 z m -21.00252,-9.84066 q 0.31891,0.54671 0.59226,2.55129 0.0911,0.86561 0.27336,1.04784 l 0.50114,0.63782 -0.0456,0.18224 0.18224,0.36447 q 0.45558,0.63782 0.59226,1.73122 0.18223,1.04785 0.31891,2.00458 l 2.05014,2.27793 -2.41461,-1.8679 q -0.72894,-2.00458 -1.36676,-4.00916 -0.77449,-2.50572 -1.8679,-6.87935 l 1.18452,1.95902 z m 26.05952,-1.27564 q -0.68338,0 -1.91346,-0.0911 -1.18452,-0.13668 -2.55128,-0.27336 0.68338,-0.36446 3.59913,-0.50114 2.91575,-0.18223 2.96131,-0.18223 l -0.63782,0.68337 -1.45788,0.36447 z m -9.11172,-12.02747 2.87019,1.04785 0.27335,1.09341 q -2.18681,-1.00229 -4.41918,-1.54899 -2.23237,-0.59227 -4.46474,-0.59227 l 5.74038,0 z"
         style="font-style:normal;font-variant:normal;font-weight:100;font-stretch:normal;font-size:45.55859756px;font-family:'AR DARLING';-inkscape-font-specification:'AR DARLING Thin';letter-spacing:-2.95332003px;fill:#d70000;fill-opacity:1"
         id="path4715" />
      <path
         d="m 262.61213,195.81388 q 0,0.77449 -0.0911,2.6424 -0.0911,1.82234 -0.0911,1.95902 -1.23008,1.77678 -2.96131,3.7358 0.91118,-1.27564 1.45788,-2.18681 1.09341,-1.73123 1.09341,-2.41461 0,-2.4146 -0.0911,-4.41918 -0.31891,-6.92491 -0.31891,-7.42605 0,-0.59226 -0.13668,-1.41232 -0.31891,-1.95902 -0.31891,-2.4146 0,-0.72894 0.18224,-1.59456 0.18223,-0.86561 0.36447,-1.73122 0.36446,3.55357 0.63782,7.79052 0.27335,4.19139 0.27335,7.47161 z m -12.93864,8.92948 -4.05472,0 q -5.96818,0 -8.74725,-2.68795 -2.77907,-2.68796 -2.77907,-8.65614 l 0,-5.10256 q 0,-5.60371 2.91575,-8.29166 2.91575,-2.68796 8.56501,-2.68796 l 3.64469,0 q 5.78594,0 8.79281,2.55128 3.1891,2.73352 3.1891,8.42834 l 0,5.10256 q 0,6.15041 -2.68796,8.74725 -2.68795,2.59684 -8.83836,2.59684 z m 4.41918,-16.26442 q 0,-3.09798 -1.09341,-4.2825 -1.0934,-1.18453 -4.19139,-1.18453 l -2.4146,0 q -3.00687,0 -4.10028,1.18453 -1.0934,1.18452 -1.0934,4.19139 l 0,4.78365 q 0,3.14354 1.04784,4.46474 1.09341,1.3212 4.14584,1.3212 l 2.4146,0 q 3.05243,0 4.14583,-1.3212 1.13897,-1.36676 1.13897,-4.5103 l 0,-4.64698 z m -1.23008,-11.79967 q 1.41231,0.45558 3.50801,1.50343 1.73123,0.91117 3.46245,1.82235 0.41003,0.59226 0.68338,1.50343 0.0911,0.27335 0.22779,0.86561 l 0.27336,-2.87019 q -3.05243,-0.63782 -5.8315,-1.23008 -2.73352,-0.59226 -3.09799,-0.7745 l -1.41232,-1.18452 q 0.54671,0.0911 1.13897,0.18223 0.63782,0.0456 1.04785,0.18224 z m -14.66987,2.05013 q -1.8679,1.27565 -2.46017,1.91347 -0.5467,0.63782 -0.82005,1.59455 1.50343,-1.549 2.87019,-2.8702 1.73123,-1.6401 3.05243,-2.59684 1.8679,-0.22779 3.82692,-0.50114 1.95902,-0.27335 3.59913,-0.27335 0.50114,0 1.13896,0.13667 0.63782,0.13668 1.45788,0.31891 -1.13897,0.36447 -2.27793,0.50115 -1.13897,0.0911 -2.77908,0.0911 -0.86561,0 -2.4146,-0.0456 -1.50343,-0.0456 -2.14126,-0.0456 -0.41002,0 -1.54899,0.72894 -0.77449,0.5467 -1.50343,1.04784 z m 17.22115,25.83173 q 1.09341,-0.50115 2.4146,-1.23008 1.59456,-0.86562 2.27793,-1.27564 l -6.3782,4.14583 -2.36905,-1.3212 q 0.59227,-0.13668 2.18682,-0.18224 1.64011,-0.0455 1.8679,-0.13667 z m -3.73581,1.64011 q -0.68338,-0.13668 -1.45787,-0.27335 -0.72894,-0.0911 -1.13897,-0.0911 l -0.27335,0.0911 q -0.22779,-0.0911 -0.68338,-0.27335 -0.45558,-0.13668 -0.82005,-0.36447 l 4.37362,0.91117 z M 233.36351,182.1463 q 1.59455,-1.13897 3.1891,-2.50572 1.91346,-1.59455 3.00687,-2.82464 -0.82006,0.2278 -1.549,0.45559 -0.72893,0.22779 -0.77449,0.27335 -1.95902,1.68567 -2.82463,3.37134 -0.86562,1.64011 -0.86562,4.10027 0,0.45559 0.18224,1.45788 0.18223,1.00229 0.18223,1.50343 l -0.13668,9.56731 q -0.13667,-1.27565 -0.36446,-2.96131 -0.45559,-3.37134 -0.45559,-5.01145 0,-3.7358 0.41003,-7.42605 z m 4.46474,21.54922 q 3.37134,1.73122 6.97047,2.05013 0.86561,0.0911 1.6401,0.18224 0.7745,0.0911 1.18453,0.27335 -1.68567,-0.68338 -4.28251,-1.27564 -6.46932,-1.41232 -7.38049,-1.73123 -0.54671,-0.63782 -1.13897,-2.09569 -0.59226,-1.45788 -1.27564,-4.05472 0.72894,1.41232 2.05014,3.59913 1.73123,2.77907 2.23237,3.05243 z m 14.98878,-13.62202 0.45558,0.86561 -0.0911,6.10485 -0.59226,-1.50343 q 0.27335,-2.00458 0.27335,-3.9636 l -0.0456,-1.50343 z m -0.31891,-4.64698 q 0.59226,0.45558 0.82005,1.41231 0.2278,0.95674 0.2278,2.00458 l -0.13668,1.23009 -0.91117,-4.64698 z m -10.02289,0.77449 q 0,0.68338 0.13667,2.05014 0.13668,1.36676 0.13668,2.0957 l 0,2.18681 q 0,1.3212 0.22779,2.14125 0.41003,1.09341 0.68338,2.00458 0.18223,-0.0456 0.82006,0.68338 0.63782,0.68338 0.82005,1.00229 l -1.18452,-0.36447 q -1.59455,-1.77678 -2.05014,-3.46245 -0.41003,-1.73123 -0.41003,-4.64698 l 0,-1.45787 q 0,-1.27565 0.27335,-2.32349 0.31891,-1.09341 1.18453,-1.82235 l -0.63782,1.91346 z m 9.5673,-2.32348 q -0.36447,0.41002 -1.23008,0.72893 -0.82005,0.27336 -1.50343,0.27336 l -3.50802,0 -1.50343,-1.09341 7.74496,0.0911 z m -4.78365,13.98649 q 0.59226,-0.0911 1.27564,-0.2278 0.68338,-0.13667 1.09341,-0.13667 l 2.4146,0.13667 -3.32578,0.72894 -1.45787,-0.50114 z"
         style="font-style:normal;font-variant:normal;font-weight:100;font-stretch:normal;font-size:45.55859756px;font-family:'AR DARLING';-inkscape-font-specification:'AR DARLING Thin';letter-spacing:-2.95332003px;fill:#d70000;fill-opacity:1"
         id="path4717" />
      <path
         d="m 287.50579,205.01672 q -0.82006,0 -1.64011,0 -0.68338,-0.13668 -1.00229,-0.18224 l -11.89079,-20.27358 0,20.86584 -7.10714,0 0,-29.43085 q 3.05242,-0.36447 5.78594,-0.36447 2.46016,0 5.14812,0.36447 2.14125,5.057 4.82921,10.02289 2.41461,4.41918 5.74038,9.56731 0,-3.28022 -0.0911,-5.87706 -0.31891,-9.15728 -0.31891,-9.7951 0,-2.73352 0.0455,-3.14355 0.0456,-0.45558 0.36447,-2.00457 l 7.06159,0 0,29.74976 q -0.95673,0.13668 -2.91575,0.31891 -1.91347,0.18224 -4.00916,0.18224 z m -10.11401,-31.38988 q 0.0911,0.22779 0.31891,0.63782 0.22779,0.41003 0.31891,0.7745 l -0.0456,-0.18224 q 0.2278,0.45559 0.72894,1.45788 0.45559,1.23008 0.91117,2.4146 l -1.23008,-0.45558 q -0.0911,-1.09341 -0.36447,-2.0957 -0.22779,-1.00229 -0.63782,-2.55128 z m 18.72458,1.36676 0,1.95902 q 0,2.6424 -0.27335,4.64698 -0.27335,1.95902 -1.13896,3.23466 0.31891,-2.6424 0.45558,-5.10257 0.18224,-2.46016 0.18224,-4.73809 l 0.77449,0 z m -0.95673,30.75205 0.0456,-19.77243 q 0,3.28022 0.31891,9.84066 0.31891,6.56044 0.31891,9.84066 l -2.27793,0.59226 q -1.41231,0 -3.1891,-0.2278 -1.77678,-0.22779 -3.41689,-0.41002 l 8.20054,0.13667 z m -8.42834,-12.66529 q -2.00457,-3.46245 -4.00915,-6.97046 -3.05243,-5.51259 -3.05243,-6.83379 2.41461,3.91804 3.73581,6.15041 2.46016,4.19139 2.46016,6.3782 0,0.31891 -0.0911,0.68338 -0.0911,0.36447 -0.18223,0.72894 l 1.13896,-0.13668 z M 272.1981,174.67469 q -2.50572,0.27335 -5.2848,0.7745 l -1.3212,-1.23009 6.606,0.45559 z m 3.82692,-0.22779 1.00229,0.5467 -3.37133,-0.27335 2.36904,-0.27335 z m 5.10257,24.96611 q 2.18681,3.41689 4.5103,6.3782 l 4.5103,0.27335 -4.60142,0.72894 q -0.18223,-0.27335 -0.7745,-0.7745 -0.5467,-0.45558 -0.77449,-0.91117 -1.54899,-2.82463 -3.05243,-5.69482 -1.73123,-3.1891 -3.32578,-5.74039 -1.95902,-3.09798 -3.69024,-5.14812 l 1.0934,-0.22779 q 0.27336,2.46016 2.50573,5.96818 1.77678,2.59684 3.59913,5.14812 z m -15.89995,5.64926 q -0.27336,-1.77678 -0.59227,-3.82692 -0.27335,-2.05014 -0.27335,-3.46245 0,-2.46017 0.63782,-12.39194 0.27335,-4.23695 0.27335,-7.42605 0,-0.82006 -0.0911,-1.41232 -0.0911,-0.59226 -0.31891,-2.09569 -0.13668,0.63782 -0.2278,1.23008 -0.0911,0.5467 -0.0911,1.23008 0,2.32349 0.18223,8.20055 0.18224,5.87706 0.31891,10.3418 0.18224,4.46474 0.18224,9.61286 z m 7.60828,0.59227 q 0.41003,-2.6424 0.50115,-4.37363 0.13667,-1.77679 0.13667,-4.87477 -0.0456,-2.32349 -0.0911,-4.64698 -0.0455,-2.36904 -0.0455,-4.69253 0.63782,3.69024 0.68337,4.10027 0.0911,0.36447 0.31891,2.23237 0.2278,0.2278 0.27336,1.3212 0.0455,1.04785 0.0455,1.91346 l 0.18224,-0.18223 q -0.18224,0.5467 -0.36447,1.09341 -0.45559,1.41231 -1.00229,1.41231 -0.41003,0 -0.59226,-0.31891 -0.13668,-0.36447 -0.13668,-0.77449 l 0,-0.2278 1.27564,0 0.0456,8.15499 -1.23008,-0.13667 z m -8.42834,-28.74748 q 0,1.27564 -0.41003,12.84752 -0.13667,3.87249 -0.13667,7.69941 l 0.45558,0 q 0,-5.14812 -0.22779,-11.16186 -0.22779,-6.01373 -0.68338,-10.56959 l 1.23008,-1.09341 q -0.22779,1.27564 -0.22779,2.27793 z m 0.68338,29.61309 0.18223,-0.95673 0.50115,0 q 1.73123,0 3.78136,0.22779 2.0957,0.22779 3.78137,0.59226 l -8.24611,0.13668 z m 29.29418,-33.07554 1.64011,0.59226 -0.59226,0.63782 q -0.86562,-0.0911 -1.77679,-0.18224 -0.91117,-0.0911 -1.68567,-0.0911 l -2.23237,0 -2.73352,0.0911 q 1.00229,-0.59226 2.00458,-0.82005 1.04785,-0.22779 2.23237,-0.22779 l 3.14355,0 z"
         style="font-style:normal;font-variant:normal;font-weight:100;font-stretch:normal;font-size:45.55859756px;font-family:'AR DARLING';-inkscape-font-specification:'AR DARLING Thin';letter-spacing:-2.95332003px;fill:#d70000;fill-opacity:1"
         id="path4719" />
      <path
         d="m 314.05807,205.29007 -3.1891,0 q -6.46932,0 -9.43063,-4.28251 -2.55128,-3.69025 -2.55128,-10.47848 0,-7.56273 1.82234,-10.75183 2.46016,-4.28251 9.29395,-4.28251 l 4.60142,0 q 4.87477,0 7.97276,2.23238 3.50801,2.50572 3.50801,7.19825 l -7.42605,0 q -0.31891,-1.91346 -2.18682,-2.59684 -1.27564,-0.45558 -3.69024,-0.45558 l -1.18453,0 q -3.23466,0 -4.32806,1.73122 -0.82006,1.3212 -0.82006,4.78366 l 0,3.55357 q 0,4.5103 1.3212,5.74038 1.3212,1.18452 5.87706,1.18452 3.59913,0 4.41919,-1.04784 0.68337,-0.86562 0.68337,-4.55586 l -5.19368,0 0,-5.69483 q 1.41232,0 4.28251,0.18224 2.87019,0.13667 3.91804,0.13667 2.27793,0 4.32807,-0.31891 l 0,7.47161 q 0,5.64927 -3.28022,8.10943 -2.87019,2.14126 -8.74725,2.14126 z m 10.11401,-29.20306 2.05013,2.82463 q 0.27336,0.86561 0.54671,3.28022 0.13667,1.3212 0.36447,3.37133 0.0456,-0.18223 -0.45559,-0.45558 -0.50114,-0.27335 -0.50114,-0.41003 0,-0.0911 0.0911,-0.59226 0.13668,-0.50115 0.13668,-0.7745 0,-0.77449 -0.86561,-2.59684 -0.86562,-1.8679 -1.45788,-2.23237 0.22779,-0.59226 0.59226,-0.95673 -0.18223,-0.13667 -0.63782,-0.27335 -0.41003,-0.13668 -0.59226,-0.22779 l 0.72894,-0.95673 z m -3.09799,-0.31891 -3.41689,-0.82006 q -0.95673,0.0456 -1.91346,0.0911 -0.95673,0.0456 -1.91346,0.0456 -0.31891,0 -0.63782,0 -0.27336,0 -0.59227,-0.0456 l -7.01602,-0.63782 12.84752,0.22779 2.6424,1.13897 z m 2.27793,0.45558 0,0.27335 -1.77678,-0.31891 1.77678,0.0456 z m 3.9636,14.3054 -0.13667,0.7745 q -0.18224,0.91117 -0.31891,2.50572 -0.13668,1.54899 -0.27336,2.77907 l 0,-0.36446 q 0,-1.18453 0.0911,-3.14355 0.13668,-2.00458 0.13668,-2.4146 0,-0.68338 -0.0911,-1.23009 -0.0911,-0.5467 -0.13668,-0.86561 0.13668,0.41003 0.31891,0.95673 0.2278,0.54671 0.41003,1.00229 z m -16.03663,-7.65384 1.64011,0 q 1.549,0.63782 3.28022,1.3212 1.73123,0.63782 3.00687,0.86561 l 4.78365,0.18223 2.36905,0.0911 -1.09341,0.63782 q -1.77678,-0.13667 -3.82692,-0.27335 -2.05013,-0.18223 -3.09798,-0.50114 -0.18224,-0.0456 -1.82235,-1.23009 -1.64011,-1.18452 -1.91346,-1.27564 l -2.09569,-0.18223 -1.04785,-0.0911 -0.18224,0.45559 z m -8.06387,-6.92491 q -0.68338,0.5467 -2.05013,1.95902 -1.00229,1.04785 -2.00458,2.05014 1.13896,-2.0957 2.27793,-4.23695 l 3.82692,-0.68338 -2.05014,0.91117 z m 8.92949,17.44894 q 0,-1.0934 0.0911,-3.69024 0.0911,-2.6424 0.0911,-2.82464 l 0.72894,0.18224 -0.0456,0.86561 q 0,0.86561 0.0456,2.59684 0.0456,1.73123 0.0456,2.6424 l 3.64469,1.27564 1.45787,2.68796 -0.27335,-2.55128 q -0.0456,-0.45559 -1.00229,-0.59227 -0.91117,-0.18223 -2.4146,-0.18223 -0.54671,0 -1.00229,0.0456 -0.41003,0 -0.72894,0 -0.63782,0 -0.63782,-0.45559 z m 11.20741,11.16186 q 0.63782,0 0.91118,-0.59226 0.68337,-1.59455 1.13896,-3.1891 0.45559,-1.64011 0.68338,-3.32578 l 1.13896,0.45558 -0.36446,-0.86561 q -0.13668,0.31891 -0.36447,1.00229 -0.18224,0.68338 -0.41003,1.45787 -0.86561,2.59684 -1.04785,2.8702 -0.41003,0.68338 -2.36905,2.27793 -0.18223,0.18223 -0.63782,0.27335 -0.41002,0.0911 -0.77449,0.0911 l 1.13896,-0.63783 q 0.54671,0.18224 0.95673,0.18224 z m -15.71771,-10.43292 q 0,-0.22779 -0.0911,-3.41689 -0.0911,-3.18911 -0.0911,-4.51031 l 0,-0.5467 q 0,-0.91117 0.18224,-1.23008 0.22779,-0.31891 0.5467,-0.31891 0.31891,0 0.59226,0.41003 0.0911,0.13667 0.0911,0.31891 0,1.0934 -0.7745,4.46474 -1.0934,4.82921 -1.13896,4.96589 l 1.64011,3.28022 -0.0911,0.0456 q -0.0911,-0.31891 -0.0911,-1.13896 0,-0.82006 -0.0911,-1.04785 -0.0456,-0.22779 -0.50115,-0.86561 -0.18223,-0.2278 -0.18223,-0.41003 z m 1.0934,12.07303 q 2.05014,0 6.10486,-0.36447 4.05471,-0.36447 6.05929,-0.36447 l -1.13897,0.82006 q -0.63782,-0.36447 -1.04784,-0.45559 -0.36447,-0.0911 -1.59455,-0.27335 -0.50115,-0.0456 -2.96131,0.50114 -2.46017,0.54671 -3.00687,0.82006 l -2.41461,-0.68338 z M 298.29479,195.1305 q -0.31891,0.0911 -0.50114,0.45559 l 1.04785,1.18452 q -0.68338,-1.41232 -0.86562,-2.50572 -0.13667,-1.13897 -0.13667,-3.00687 l 0,-2.41461 q 0,-0.59226 0.31891,-3.00686 0.13667,-1.04785 0.13667,-1.73123 0,-0.13668 -0.27335,-0.50115 -0.27335,-0.36446 -0.27335,-0.59226 0,-0.50114 2.82463,-4.69253 2.68796,-3.9636 2.96131,-4.19139 l 1.82235,-0.82006 q -1.27564,1.09341 -4.41919,5.64927 -3.14354,4.5103 -3.14354,5.46703 l -0.0456,3.9636 q 0,1.3212 0.13668,3.91804 0.18223,2.59684 0.41002,2.82463 z m -1.68566,-5.92262 q 0.27335,2.32349 0.68338,4.41919 0.41002,2.05013 0.63782,2.4146 l -0.2278,0.59226 q 2.46017,2.59684 4.82921,4.60142 3.09799,2.6424 5.92262,4.05472 3.4169,1.73122 6.37821,1.73122 l 4.19139,-0.27335 q -1.13897,-0.18223 -5.96818,-0.45558 -4.82921,-0.27336 -7.65384,-1.36676 -0.18224,-0.0911 -1.91347,-1.68567 -1.32119,-1.23008 -1.8679,-1.77679 -1.77678,-1.77678 -2.27793,-2.36904 -1.41231,-1.64011 -1.59455,-2.73352 -0.13667,-1.0934 -0.13667,-2.05014 0,-0.86561 0.13667,-2.64239 0.13668,-1.77679 0.13668,-2.59684 l -1.27564,0.13667 z m 12.7564,8.65614 8.20055,-0.0911 -0.82005,0.50114 -6.46932,0.0456 -0.91118,-0.45558 z m 4.60142,-10.84295 10.5696,0.31891 q -1.00229,0 -2.23237,0.0456 -1.18453,0 -2.6424,0 l -0.95673,0 q -1.13897,0 -2.59684,-0.0456 -1.45788,-0.0456 -2.14126,-0.31891 z"
         style="font-style:normal;font-variant:normal;font-weight:100;font-stretch:normal;font-size:45.55859756px;font-family:'AR DARLING';-inkscape-font-specification:'AR DARLING Thin';letter-spacing:-2.95332003px;fill:#d70000;fill-opacity:1"
         id="path4721" />
      <path
         d="m 345.74637,204.47001 -1.64011,-6.3782 -8.10943,0 -1.73123,6.3782 -5.87706,0 7.06159,-26.5151 9.11172,0 7.06158,26.5151 -5.87706,0 z m -5.74038,-21.50366 -2.91575,10.75183 5.8315,0 -2.91575,-10.75183 z m -2.14126,-6.33264 q 0.18224,0 1.3212,0.13667 1.13897,0.0911 1.77679,0.0911 0.59226,0 1.13896,0 0.59226,-0.0456 1.18453,-0.0456 l 0.82005,0 -0.0456,0.63782 q -0.18223,0 -2.96131,0.0911 -2.73351,0.0911 -3.9636,0.0911 l -2.55128,0 q 0.45559,-0.13668 0.91117,-0.36447 0.68338,-0.36447 0.72894,-0.59226 0.27335,-0.0456 0.68338,-0.0456 0.41003,0 0.95673,0 z m 7.06158,0.63782 1.13897,0.5467 q 0.59226,2.82464 0.86561,4.23695 0.54671,2.55128 1.09341,4.23695 -1.09341,-2.6424 -1.73123,-4.46474 -0.86561,-2.46017 -1.36676,-4.55586 z m 5.74039,22.68818 -0.18224,0.41003 q -0.0456,-0.59226 -0.0911,-1.23008 0,-4.28251 -1.09341,-7.47161 -0.45559,-1.3212 -1.8679,-4.64698 l 0.95673,-0.36447 q 0.59226,3.55357 1.04785,5.46703 0.22779,1.00229 2.27793,8.88393 l -1.04785,-1.04785 z m 1.04785,1.73123 q 0.36446,0.95673 0.95673,1.82234 0.95673,1.41232 1.0934,1.59455 l -1.04785,-0.18223 q -0.13667,-0.36447 -0.45558,-1.04785 -0.27335,-0.68338 -0.36447,-1.09341 -0.0911,-0.45558 -0.18223,-1.0934 z m -17.63118,-22.96154 0.68338,-0.36446 q -1.00229,3.55357 -2.14126,7.51716 -1.27564,4.41919 -2.23237,7.51717 -0.41003,1.3212 -2.36905,7.56273 1.3212,-5.60371 2.8702,-11.16186 0.45558,-1.68566 3.1891,-11.07074 z m 6.28708,19.45353 q 0.86562,0 1.95902,0.18223 0.36447,0.0456 1.13897,0.18223 l -0.18223,-0.45558 q -2.91576,0 -4.28251,0.50114 -0.31891,0.13668 -2.77908,1.18453 l 0.54671,-1.45788 3.59912,-0.13667 z m -13.39422,6.24152 q 0.86561,-1.0934 2.36904,-7.06158 0.95673,-3.9636 1.91347,-7.97275 l -3.46246,15.80883 -0.82005,-0.7745 z m 6.10485,-24.6472 0.27335,-0.18223 q -0.7745,2.91575 -1.73123,6.19597 -0.91117,3.28022 -2.00457,6.74267 0.68337,-3.23466 1.41231,-6.46932 1.00229,-4.05472 2.05014,-6.28709 z m 10.38736,20.00023 q 0.36447,-0.0456 1.00229,2.55128 0.68338,2.59684 1.04785,2.59684 0.86561,0 1.82234,0 0.95673,0 2.00458,-0.0456 1.3212,0 2.09569,0.0456 0.82006,0.0456 1.59455,0.27335 -0.50114,0.31891 -1.68566,0.41003 -1.13897,0.0911 -2.00458,0.0911 l -5.10256,-0.13667 q -0.13668,0.0456 -0.18224,-0.13668 0,-0.18223 0,-0.63782 l 0,-0.68338 q 0,-0.63782 -0.18223,-1.77678 -0.18224,-1.18453 -0.41003,-2.55128 z m -7.74496,0.77449 q 0.18223,0.59226 0.18223,1.45788 0,0.5467 -0.0456,1.18452 -0.0455,0.63782 -0.0455,0.68338 l 0.13667,1.41232 -1.8679,0 q -1.13897,0 -3.78137,-0.0911 -2.64239,-0.0911 -2.82463,-0.0911 4.23695,0 7.65385,-0.36447 0.13667,-0.45558 0.18223,-1.23008 0.0456,-0.77449 0.0456,-0.86561 0.18223,-0.0911 0.27335,-1.00229 0.0911,-0.95673 0.0911,-1.09341 z m 6.01373,-11.98191 -1.23008,-2.50572 1.09341,4.23695 0.13667,-1.73123 z m 0.54671,4.55586 -0.54671,0.22779 -0.0456,-0.86561 0,-0.27335 0.0456,-0.50115 0.54671,1.41232 z m -2.27793,-8.70169 -1.91347,8.70169 3.05243,-0.0456 0.0911,0.41003 -3.64469,0 2.41461,-9.06616 z"
         style="font-style:normal;font-variant:normal;font-weight:100;font-stretch:normal;font-size:45.55859756px;font-family:'AR DARLING';-inkscape-font-specification:'AR DARLING Thin';letter-spacing:-2.95332003px;fill:#d70000;fill-opacity:1"
         id="path4723" />
    </g>
    <text
       xml:space="preserve"
       style="font-style:normal;font-variant:normal;font-weight:normal;font-stretch:normal;font-size:16.02798653px;line-height:125%;font-family:'04b03';-inkscape-font-specification:'04b03';letter-spacing:0px;word-spacing:0px;fill:#2b0000;fill-opacity:1;stroke:none;stroke-width:1px;stroke-linecap:butt;stroke-linejoin:miter;stroke-opacity:1"
       x="213.48679"
       y="170.81644"
       id="text8664"
       sodipodi:linespacing="125%"><tspan
         sodipodi:role="line"
         id="tspan8666"
         x="213.48679"
         y="170.81644"
         style="font-style:normal;font-variant:normal;font-weight:100;font-stretch:normal;font-family:'AR DESTINE';-inkscape-font-specification:'AR DESTINE Thin';fill:#2b0000;fill-opacity:1">Dictionary Builder</tspan></text>
  </g>
</svg>
