<?xml version="1.0" encoding="UTF-8" standalone="no"?>
<!-- Created with Inkscape (http://www.inkscape.org/) -->

<svg
   xmlns:dc="http://purl.org/dc/elements/1.1/"
   xmlns:cc="http://creativecommons.org/ns#"
   xmlns:rdf="http://www.w3.org/1999/02/22-rdf-syntax-ns#"
   xmlns:svg="http://www.w3.org/2000/svg"
   xmlns="http://www.w3.org/2000/svg"
   xmlns:sodipodi="http://sodipodi.sourceforge.net/DTD/sodipodi-0.dtd"
   xmlns:inkscape="http://www.inkscape.org/namespaces/inkscape"
   width="1200"
   height="630"
   version="1.1"
   viewBox="0 0 1125.0074 590.61647"
   id="svg30"
   sodipodi:docname="logo.svg"
   inkscape:version="0.92.3 (2405546, 2018-03-11)">
  <defs
     id="defs34" />
  <sodipodi:namedview
     pagecolor="#ffffff"
     bordercolor="#666666"
     borderopacity="1"
     objecttolerance="10"
     gridtolerance="10"
     guidetolerance="10"
     inkscape:pageopacity="0"
     inkscape:pageshadow="2"
     inkscape:window-width="1248"
     inkscape:window-height="611"
     id="namedview32"
     showgrid="false"
     units="px"
     inkscape:zoom="0.26648629"
     inkscape:cx="937.32668"
     inkscape:cy="197.75442"
     inkscape:window-x="2322"
     inkscape:window-y="321"
     inkscape:window-maximized="0"
     inkscape:current-layer="svg30" />
  <metadata
     id="metadata2">
    <rdf:RDF>
      <cc:Work
         rdf:about="">
        <dc:format>image/svg+xml</dc:format>
        <dc:type
           rdf:resource="http://purl.org/dc/dcmitype/StillImage" />
        <dc:title></dc:title>
      </cc:Work>
    </rdf:RDF>
  </metadata>
  <g
     transform="matrix(4.5967881,0,0,4.5967881,-505.87772,-547.68653)"
     id="g28"
     style="stroke-width:0.2175432">
    <g
       id="lexi"
       style="stroke-width:0.2175432">
      <path
         d="m 144.03,159.39 -11.339,22.409 h -21.62 L 122.41,159.39 Z"
         id="path4"
         inkscape:connector-curvature="0"
         style="fill:#ff5500;stroke-width:0.2175432" />
      <path
         d="m 132.69,183.97 11.339,22.409 h -21.62 L 111.07,183.97 Z"
         id="path6"
         inkscape:connector-curvature="0"
         style="fill:#ff5500;stroke-width:0.2175432" />
      <g
         id="g14"
         style="fill:#ff5400;stroke-width:0.2175432">
        <path
           d="m 160.1,186.76 v 7.0042 h -6.1056 q -1.2442,0 -1.7741,0.36864 -0.50688,0.36864 -0.50688,1.2442 0,0.99072 0.52992,1.3133 0.52992,0.29952 2.1658,0.29952 h 6.2899 v 8.9856 h -7.3498 q -5.184,0 -7.9258,-2.4653 -2.7418,-2.4883 -2.7418,-7.1655 v -12.326 q 0,-4.5159 2.5805,-7.0042 2.6035,-2.4883 7.3037,-2.4883 h 8.1332 v 9.0317 h -5.9674 q -2.4192,0 -2.4192,1.5667 0,0.92161 0.576,1.2902 0.57601,0.3456 2.0506,0.3456 z"
           id="path8"
           inkscape:connector-curvature="0"
           style="stroke-width:0.2175432" />
        <path
           d="m 187.75,174.53 -8.1792,15.299 8.4557,16.151 h -9.8381 l -3.8707,-7.6263 -3.2717,7.6263 h -9.6768 l 8.64,-15.898 -8.1792,-15.552 h 9.746 l 3.6634,7.1424 2.9491,-7.1424 z"
           id="path10"
           inkscape:connector-curvature="0"
           style="stroke-width:0.2175432" />
        <path
           d="m 198.95,174.53 v 31.45 h -9.3543 v -31.45 z"
           id="path12"
           inkscape:connector-curvature="0"
           style="stroke-width:0.2175432" />
      </g>
    </g>
    <g
       id="conga"
       style="fill:#d70000;stroke-width:0.2175432">
      <path
         d="m 218.5,205.38 h -3.2347 q -7.6994,0 -10.114,-3.918 -1.8223,-2.9613 -1.8223,-11.481 0,-7.5172 1.8223,-10.478 2.4146,-3.918 9.294,-3.918 h 4.7381 q 6.5604,0 8.7928,1.8679 2.5513,2.1413 2.5513,8.4739 -0.77449,-0.13667 -1.4123,-0.13667 -0.68338,0 -2.0501,0.13667 -1.3668,0.13668 -2.0957,0.13668 l -1.7768,-0.13668 q 0,-2.5057 -1.5946,-3.3713 -1.0934,-0.59227 -3.6902,-0.59227 h -1.8679 q -3.3258,0 -4.5559,1.8679 -0.95673,1.4579 -0.95673,4.647 0,1.1845 0.0456,3.098 0.0911,1.9135 0.0911,1.959 0,4.0092 1.7768,4.9203 1.0478,0.5467 5.6493,0.5467 2.1868,0 3.0069,-0.22779 2.0957,-0.59226 2.0957,-3.6447 0.45558,-0.13668 1.139,-0.27335 0.72894,-0.13668 1.1845,-0.13668 0.68338,0 2.0501,0.2278 1.3668,0.22779 2.0957,0.22779 0.5467,0 0.86561,-0.0456 0,6.606 -2.7791,8.6106 -2.2324,1.6401 -9.2484,1.6401 z m 3.0069,-31.208 q 3.8269,0.68338 7.0616,1.549 0.63782,1.0023 1.0934,2.1412 0.50114,1.139 0.50114,2.0046 l -1.5946,-3.0524 -3.5991,-1.4123 q -1.4579,-0.18224 -2.1868,-0.18224 -0.68338,0 -1.6401,0 h -3.8725 q 1.0478,-0.13667 2.1868,-0.36447 1.6401,-0.36447 2.0501,-0.68338 z m 10.797,13.303 q -0.50115,0 -2.1868,-0.45559 -0.82006,-0.22779 -1.3668,-0.22779 -0.27335,0 -0.63782,0.0911 -0.31891,0.0456 -0.82006,0.2278 -1.7312,-0.18224 -2.7335,-0.31891 -1.0023,-0.13668 -1.0934,-0.31891 l 4.5559,-0.13668 q 0.7745,0 1.5034,0 0.72894,0 1.5946,0.13668 l -0.0911,-8.0183 q 0.22779,2.1413 0.59226,4.3281 0.36447,2.1412 0.95673,4.6925 h -0.27335 z m -0.59226,13.531 -1.2301,-0.22779 0.31891,-0.59227 q 0.0456,-0.0911 0.0456,-0.91117 v -1.3668 q 0,-0.91117 0.2278,-1.8679 0.22779,-1.0023 0.50114,-1.959 l 0.13668,5.1481 v 1.7768 z m -23.28,-25.604 q 0.13668,-0.0456 0.63782,-0.31891 0.54671,-0.27336 0.72894,-0.27336 l 0.13668,0.18224 q 0.22779,0 0.68338,-0.22779 0.50114,-0.27336 0.72893,-0.36447 0.2278,-0.0911 1.6857,-0.13668 1.4579,-0.0911 2.7791,-0.0911 l -3.7358,0.68338 -3.6447,0.54671 z m 8.6561,-0.59227 -0.95673,0.36447 -1.9135,-0.13667 q 1.3212,-0.41003 2.688,-0.82006 l 2.369,-0.13667 q -0.5467,0.13667 -1.0023,0.27335 -0.41003,0.0911 -1.1845,0.45558 z m -5.786,14.032 q 0,-0.5467 0.0911,-1.0023 0.13668,-0.50114 0.36447,-1.139 v 0.50114 q 0,0.13668 0.31891,2.1413 0.0911,0.59226 0.0911,1.2756 v 5.5582 l -0.86562,-4.1458 0.18224,-0.59226 q 0,-0.0911 -0.0911,-1.139 -0.0911,-1.0478 -0.0911,-1.4579 z m 0.72894,-5.4215 0.82006,-0.63782 q -0.36447,0.82005 -0.36447,1.6401 v 0.31891 l -0.68338,1.3668 z m 0.45559,13.759 q 0.18223,0.0455 1.0023,0.31891 1.0934,0.27335 1.6857,0.27335 l 3.3258,-0.68338 q 0.27335,-0.0456 1.0023,-0.18224 0.7745,0 1.5946,0 l 1.4123,-2.4602 q -0.36447,1.0478 -0.45559,1.4579 -0.22779,0.86561 -0.22779,1.4579 l 0.0911,0.22779 0.13667,-0.0456 q -4.237,0.41002 -8.4739,0.77449 l -1.0934,-1.139 z m 19.18,4.9659 q -0.68338,0.63782 -1.6857,1.2756 -0.95673,0.63782 -1.7312,0.91118 0.41003,-0.36447 1.2756,-1.0934 0.50115,-0.45559 1.139,-1.1845 l 1.0023,0.0911 z m -4.8292,3.4169 -1.5034,0.0456 2.7335,-1.0934 q -0.31891,0.22779 -0.63782,0.50115 -0.31891,0.22779 -0.59226,0.5467 z m -24.921,-21.64 -0.13667,-4.5103 1.5946,-2.2779 q 1.0023,-0.22779 1.6401,-0.77449 0.95673,-1.0478 1.959,-2.1413 0.31891,-0.31891 1.7768,-0.45558 1.4579,-0.13668 3.9636,-0.2278 -1.0023,0.2278 -2.0501,0.50115 -1.0478,0.22779 -1.959,0.50114 -1.7768,0.63782 -3.7814,2.2324 -2.4146,1.9135 -2.5968,3.4625 z m 5.3759,22.233 q -2.688,-2.7335 -3.9636,-7.4716 -1.0023,-3.7814 -1.0023,-8.5195 0.22779,1.5946 0.68338,4.647 0.45559,3.0069 1.1845,5.0114 0.13668,0.41002 0.45559,1.2756 0.31891,0.86561 0.63782,1.3668 l 1.6401,2.1868 z m -4.9659,-16.811 v -2.8702 q 0,-0.41003 0.50115,-2.7335 0.50114,-2.3235 1.3212,-5.6493 0.27335,-0.18223 1.7768,-1.1845 1.549,-1.0478 1.5946,-1.4123 l 0.95673,0.82006 q -0.63782,0.0911 -1.8679,0.86561 -0.86561,0.54671 -1.6857,1.2301 -0.18223,0.95673 -0.50114,1.9135 -0.27335,0.95673 -0.63782,1.6857 0,0.0456 -0.31891,0.45559 -0.13668,0.22779 -0.18224,0.41003 z m 20.957,16.447 q 0.59226,0 0.86561,0.0911 -2.1412,0.45558 -4.6925,0.95673 -2.5057,0.5467 -3.6902,0.5467 -1.3668,0 -3.2802,-0.27335 -1.8679,-0.27335 -3.1891,-0.63782 l -0.72894,-1.0478 5.9682,0.7745 q 0.27335,0.0456 0.91117,-0.0456 0.68338,-0.0911 0.82005,-0.0911 0.0911,0 1.0478,0.0911 1.0023,0.0911 1.3668,0.0911 0.59226,0 2.9158,-0.31891 1.0023,-0.13668 1.6857,-0.13668 z m -21.003,-9.8407 q 0.31891,0.54671 0.59226,2.5513 0.0911,0.86561 0.27336,1.0478 l 0.50114,0.63782 -0.0456,0.18224 0.18224,0.36447 q 0.45558,0.63782 0.59226,1.7312 0.18223,1.0478 0.31891,2.0046 l 2.0501,2.2779 -2.4146,-1.8679 q -0.72894,-2.0046 -1.3668,-4.0092 -0.77449,-2.5057 -1.8679,-6.8794 l 1.1845,1.959 z m 26.06,-1.2756 q -0.68338,0 -1.9135,-0.0911 -1.1845,-0.13668 -2.5513,-0.27336 0.68338,-0.36446 3.5991,-0.50114 2.9158,-0.18223 2.9613,-0.18223 l -0.63782,0.68337 -1.4579,0.36447 z m -9.1117,-12.027 2.8702,1.0478 0.27335,1.0934 q -2.1868,-1.0023 -4.4192,-1.549 -2.2324,-0.59227 -4.4647,-0.59227 z"
         id="path17"
         inkscape:connector-curvature="0"
         style="stroke-width:0.2175432" />
      <path
         d="m 262.61,195.81 q 0,0.77449 -0.0911,2.6424 -0.0911,1.8223 -0.0911,1.959 -1.2301,1.7768 -2.9613,3.7358 0.91118,-1.2756 1.4579,-2.1868 1.0934,-1.7312 1.0934,-2.4146 0,-2.4146 -0.0911,-4.4192 -0.31891,-6.9249 -0.31891,-7.426 0,-0.59226 -0.13668,-1.4123 -0.31891,-1.959 -0.31891,-2.4146 0,-0.72894 0.18224,-1.5946 0.18223,-0.86561 0.36447,-1.7312 0.36446,3.5536 0.63782,7.7905 0.27335,4.1914 0.27335,7.4716 z m -12.939,8.9295 h -4.0547 q -5.9682,0 -8.7472,-2.688 -2.7791,-2.688 -2.7791,-8.6561 v -5.1026 q 0,-5.6037 2.9158,-8.2917 2.9158,-2.688 8.565,-2.688 h 3.6447 q 5.7859,0 8.7928,2.5513 3.1891,2.7335 3.1891,8.4283 v 5.1026 q 0,6.1504 -2.688,8.7472 -2.688,2.5968 -8.8384,2.5968 z m 4.4192,-16.264 q 0,-3.098 -1.0934,-4.2825 -1.0934,-1.1845 -4.1914,-1.1845 h -2.4146 q -3.0069,0 -4.1003,1.1845 -1.0934,1.1845 -1.0934,4.1914 v 4.7836 q 0,3.1435 1.0478,4.4647 1.0934,1.3212 4.1458,1.3212 h 2.4146 q 3.0524,0 4.1458,-1.3212 1.139,-1.3668 1.139,-4.5103 z m -1.2301,-11.8 q 1.4123,0.45558 3.508,1.5034 1.7312,0.91117 3.4624,1.8224 0.41003,0.59226 0.68338,1.5034 0.0911,0.27335 0.22779,0.86561 l 0.27336,-2.8702 q -3.0524,-0.63782 -5.8315,-1.2301 -2.7335,-0.59226 -3.098,-0.7745 l -1.4123,-1.1845 q 0.54671,0.0911 1.139,0.18223 0.63782,0.0456 1.0478,0.18224 z m -14.67,2.0501 q -1.8679,1.2756 -2.4602,1.9135 -0.5467,0.63782 -0.82005,1.5946 1.5034,-1.549 2.8702,-2.8702 1.7312,-1.6401 3.0524,-2.5968 1.8679,-0.22779 3.8269,-0.50114 1.959,-0.27335 3.5991,-0.27335 0.50114,0 1.139,0.13667 0.63782,0.13668 1.4579,0.31891 -1.139,0.36447 -2.2779,0.50115 -1.139,0.0911 -2.7791,0.0911 -0.86561,0 -2.4146,-0.0456 -1.5034,-0.0456 -2.1413,-0.0456 -0.41002,0 -1.549,0.72894 -0.77449,0.5467 -1.5034,1.0478 z m 17.221,25.832 q 1.0934,-0.50115 2.4146,-1.2301 1.5946,-0.86562 2.2779,-1.2756 l -6.3782,4.1458 -2.369,-1.3212 q 0.59227,-0.13668 2.1868,-0.18224 1.6401,-0.0455 1.8679,-0.13667 z m -3.7358,1.6401 q -0.68338,-0.13668 -1.4579,-0.27335 -0.72894,-0.0911 -1.139,-0.0911 l -0.27335,0.0911 q -0.22779,-0.0911 -0.68338,-0.27335 -0.45558,-0.13668 -0.82005,-0.36447 z m -18.315,-24.055 q 1.5946,-1.139 3.1891,-2.5057 1.9135,-1.5946 3.0069,-2.8246 -0.82006,0.2278 -1.549,0.45559 -0.72893,0.22779 -0.77449,0.27335 -1.959,1.6857 -2.8246,3.3713 -0.86562,1.6401 -0.86562,4.1003 0,0.45559 0.18224,1.4579 0.18223,1.0023 0.18223,1.5034 l -0.13668,9.5673 q -0.13667,-1.2756 -0.36446,-2.9613 -0.45559,-3.3713 -0.45559,-5.0114 0,-3.7358 0.41003,-7.426 z m 4.4647,21.549 q 3.3713,1.7312 6.9705,2.0501 0.86561,0.0911 1.6401,0.18224 0.7745,0.0911 1.1845,0.27335 -1.6857,-0.68338 -4.2825,-1.2756 -6.4693,-1.4123 -7.3805,-1.7312 -0.54671,-0.63782 -1.139,-2.0957 -0.59226,-1.4579 -1.2756,-4.0547 0.72894,1.4123 2.0501,3.5991 1.7312,2.7791 2.2324,3.0524 z m 14.989,-13.622 0.45558,0.86561 -0.0911,6.1048 -0.59226,-1.5034 q 0.27335,-2.0046 0.27335,-3.9636 l -0.0456,-1.5034 z m -0.31891,-4.647 q 0.59226,0.45558 0.82005,1.4123 0.2278,0.95674 0.2278,2.0046 l -0.13668,1.2301 z m -10.023,0.77449 q 0,0.68338 0.13667,2.0501 0.13668,1.3668 0.13668,2.0957 v 2.1868 q 0,1.3212 0.22779,2.1412 0.41003,1.0934 0.68338,2.0046 0.18223,-0.0456 0.82006,0.68338 0.63782,0.68338 0.82005,1.0023 l -1.1845,-0.36447 q -1.5946,-1.7768 -2.0501,-3.4624 -0.41003,-1.7312 -0.41003,-4.647 v -1.4579 q 0,-1.2756 0.27335,-2.3235 0.31891,-1.0934 1.1845,-1.8224 z m 9.5673,-2.3235 q -0.36447,0.41002 -1.2301,0.72893 -0.82005,0.27336 -1.5034,0.27336 h -3.508 l -1.5034,-1.0934 7.745,0.0911 z m -4.7836,13.986 q 0.59226,-0.0911 1.2756,-0.2278 0.68338,-0.13667 1.0934,-0.13667 l 2.4146,0.13667 -3.3258,0.72894 z"
         id="path19"
         inkscape:connector-curvature="0"
         style="stroke-width:0.2175432" />
      <path
         d="m 287.51,205.02 q -0.82006,0 -1.6401,0 -0.68338,-0.13668 -1.0023,-0.18224 l -11.891,-20.274 v 20.866 h -7.1071 v -29.431 q 3.0524,-0.36447 5.7859,-0.36447 2.4602,0 5.1481,0.36447 2.1412,5.057 4.8292,10.023 2.4146,4.4192 5.7404,9.5673 0,-3.2802 -0.0911,-5.8771 -0.31891,-9.1573 -0.31891,-9.7951 0,-2.7335 0.0455,-3.1436 0.0456,-0.45558 0.36447,-2.0046 h 7.0616 v 29.75 q -0.95673,0.13668 -2.9158,0.31891 -1.9135,0.18224 -4.0092,0.18224 z m -10.114,-31.39 q 0.0911,0.22779 0.31891,0.63782 0.22779,0.41003 0.31891,0.7745 l -0.0456,-0.18224 q 0.2278,0.45559 0.72894,1.4579 0.45559,1.2301 0.91117,2.4146 l -1.2301,-0.45558 q -0.0911,-1.0934 -0.36447,-2.0957 -0.22779,-1.0023 -0.63782,-2.5513 z m 18.725,1.3668 v 1.959 q 0,2.6424 -0.27335,4.647 -0.27335,1.959 -1.139,3.2347 0.31891,-2.6424 0.45558,-5.1026 0.18224,-2.4602 0.18224,-4.7381 z m -0.95673,30.752 0.0456,-19.772 q 0,3.2802 0.31891,9.8407 0.31891,6.5605 0.31891,9.8407 l -2.2779,0.59226 q -1.4123,0 -3.1891,-0.2278 -1.7768,-0.22779 -3.4169,-0.41002 l 8.2005,0.13667 z m -8.4283,-12.665 q -2.0046,-3.4624 -4.0092,-6.9705 -3.0524,-5.5126 -3.0524,-6.8338 2.4146,3.918 3.7358,6.1504 2.4602,4.1914 2.4602,6.3782 0,0.31891 -0.0911,0.68338 -0.0911,0.36447 -0.18223,0.72894 l 1.139,-0.13668 z m -14.533,-18.406 q -2.5057,0.27335 -5.2848,0.7745 l -1.3212,-1.2301 z m 3.8269,-0.22779 1.0023,0.5467 -3.3713,-0.27335 z m 5.1026,24.966 q 2.1868,3.4169 4.5103,6.3782 l 4.5103,0.27335 -4.6014,0.72894 q -0.18223,-0.27335 -0.7745,-0.7745 -0.5467,-0.45558 -0.77449,-0.91117 -1.549,-2.8246 -3.0524,-5.6948 -1.7312,-3.1891 -3.3258,-5.7404 -1.959,-3.098 -3.6902,-5.1481 l 1.0934,-0.22779 q 0.27336,2.4602 2.5057,5.9682 1.7768,2.5968 3.5991,5.1481 z m -15.9,5.6493 q -0.27336,-1.7768 -0.59227,-3.8269 -0.27335,-2.0501 -0.27335,-3.4624 0,-2.4602 0.63782,-12.392 0.27335,-4.237 0.27335,-7.426 0,-0.82006 -0.0911,-1.4123 -0.0911,-0.59224 -0.31891,-2.0957 -0.13668,0.63782 -0.2278,1.2301 -0.0911,0.5467 -0.0911,1.2301 0,2.3235 0.18223,8.2006 0.18224,5.8771 0.31891,10.342 0.18224,4.4647 0.18224,9.6129 z m 7.6083,0.59227 q 0.41003,-2.6424 0.50115,-4.3736 0.13667,-1.7768 0.13667,-4.8748 -0.0456,-2.3235 -0.0911,-4.647 -0.0455,-2.369 -0.0455,-4.6925 0.63782,3.6902 0.68337,4.1003 0.0911,0.36447 0.31891,2.2324 0.2278,0.2278 0.27336,1.3212 0.0455,1.0478 0.0455,1.9135 l 0.18224,-0.18223 q -0.18224,0.5467 -0.36447,1.0934 -0.45559,1.4123 -1.0023,1.4123 -0.41003,0 -0.59226,-0.31891 -0.13668,-0.36447 -0.13668,-0.77449 v -0.2278 h 1.2756 l 0.0456,8.155 -1.2301,-0.13667 z m -8.4283,-28.747 q 0,1.2756 -0.41003,12.848 -0.13667,3.8725 -0.13667,7.6994 h 0.45558 q 0,-5.1481 -0.22779,-11.162 -0.22779,-6.0137 -0.68338,-10.57 l 1.2301,-1.0934 q -0.22779,1.2756 -0.22779,2.2779 z m 0.68338,29.613 0.18223,-0.95673 h 0.50115 q 1.7312,0 3.7814,0.22779 2.0957,0.22779 3.7814,0.59226 z m 29.294,-33.076 1.6401,0.59226 -0.59226,0.63782 q -0.86562,-0.0911 -1.7768,-0.18224 -0.91117,-0.0911 -1.6857,-0.0911 h -2.2324 l -2.7335,0.0911 q 1.0023,-0.59226 2.0046,-0.82005 1.0478,-0.22779 2.2324,-0.22779 z"
         id="path21"
         inkscape:connector-curvature="0"
         style="stroke-width:0.2175432" />
      <path
         d="m 314.06,205.29 h -3.1891 q -6.4693,0 -9.4306,-4.2825 -2.5513,-3.6902 -2.5513,-10.478 0,-7.5627 1.8223,-10.752 2.4602,-4.2825 9.294,-4.2825 h 4.6014 q 4.8748,0 7.9728,2.2324 3.508,2.5057 3.508,7.1982 h -7.426 q -0.31891,-1.9135 -2.1868,-2.5968 -1.2756,-0.45558 -3.6902,-0.45558 H 311.6 q -3.2347,0 -4.3281,1.7312 -0.82006,1.3212 -0.82006,4.7837 v 3.5536 q 0,4.5103 1.3212,5.7404 1.3212,1.1845 5.8771,1.1845 3.5991,0 4.4192,-1.0478 0.68337,-0.86562 0.68337,-4.5559 h -5.1937 v -5.6948 q 1.4123,0 4.2825,0.18224 2.8702,0.13667 3.918,0.13667 2.2779,0 4.3281,-0.31891 v 7.4716 q 0,5.6493 -3.2802,8.1094 -2.8702,2.1413 -8.7472,2.1413 z m 10.114,-29.203 2.0501,2.8246 q 0.27336,0.86561 0.54671,3.2802 0.13667,1.3212 0.36447,3.3713 0.0456,-0.18223 -0.45559,-0.45558 -0.50114,-0.27335 -0.50114,-0.41003 0,-0.0911 0.0911,-0.59226 0.13668,-0.50115 0.13668,-0.7745 0,-0.77449 -0.86561,-2.5968 -0.86562,-1.8679 -1.4579,-2.2324 0.22779,-0.59226 0.59226,-0.95673 -0.18223,-0.13667 -0.63782,-0.27335 -0.41003,-0.13668 -0.59226,-0.22779 l 0.72894,-0.95673 z m -3.098,-0.31891 -3.4169,-0.82006 q -0.95673,0.0456 -1.9135,0.0911 -0.95673,0.0456 -1.9135,0.0456 -0.31891,0 -0.63782,0 -0.27336,0 -0.59227,-0.0456 l -7.016,-0.63782 12.848,0.22779 2.6424,1.139 z m 2.2779,0.45558 v 0.27335 l -1.7768,-0.31891 1.7768,0.0456 z m 3.9636,14.305 -0.13667,0.7745 q -0.18224,0.91117 -0.31891,2.5057 -0.13668,1.549 -0.27336,2.7791 v -0.36446 q 0,-1.1845 0.0911,-3.1436 0.13668,-2.0046 0.13668,-2.4146 0,-0.68338 -0.0911,-1.2301 -0.0911,-0.5467 -0.13668,-0.86561 0.13668,0.41003 0.31891,0.95673 0.2278,0.54671 0.41003,1.0023 z m -16.037,-7.6538 h 1.6401 q 1.549,0.63782 3.2802,1.3212 1.7312,0.63782 3.0069,0.86561 l 4.7836,0.18223 2.369,0.0911 -1.0934,0.63782 q -1.7768,-0.13667 -3.8269,-0.27335 -2.0501,-0.18223 -3.098,-0.50114 -0.18224,-0.0456 -1.8224,-1.2301 -1.6401,-1.1845 -1.9135,-1.2756 l -3.1435,-0.27333 z m -8.0639,-6.9249 q -0.68338,0.5467 -2.0501,1.959 -1.0023,1.0478 -2.0046,2.0501 1.139,-2.0957 2.2779,-4.237 l 3.8269,-0.68338 z m 8.9295,17.449 q 0,-1.0934 0.0911,-3.6902 0.0911,-2.6424 0.0911,-2.8246 l 0.72894,0.18224 -0.0456,0.86561 q 0,0.86561 0.0456,2.5968 0.0456,1.73119 0.0456,2.6424 l 3.6447,1.2756 1.4579,2.688 -0.27335,-2.5513 q -0.0456,-0.45559 -1.0023,-0.59227 -0.91117,-0.18223 -2.4146,-0.18223 -0.54671,0 -1.0023,0.0456 -0.41003,0 -0.72894,0 -0.63782,0 -0.63782,-0.45559 z m 11.207,11.162 q 0.63782,0 0.91118,-0.59226 0.68337,-1.5946 1.139,-3.1891 0.45559,-1.6401 0.68338,-3.3258 l 1.139,0.45558 -0.36446,-0.86561 q -0.13668,0.31891 -0.36447,1.0023 -0.18224,0.68338 -0.41003,1.4579 -0.86561,2.5968 -1.0478,2.8702 -0.41003,0.68338 -2.369,2.2779 -0.18223,0.18223 -0.63782,0.27335 -0.41002,0.0911 -0.77449,0.0911 l 1.139,-0.63783 q 0.54671,0.18224 0.95673,0.18224 z m -15.718,-10.433 q 0,-0.22779 -0.0911,-3.4169 -0.0911,-3.1891 -0.0911,-4.5103 v -0.5467 q 0,-0.91117 0.18224,-1.2301 0.22779,-0.31891 0.5467,-0.31891 0.31891,0 0.59226,0.41003 0.0911,0.13667 0.0911,0.31891 0,1.0934 -0.7745,4.4647 -1.0934,4.8292 -1.139,4.9659 l 1.6401,3.2802 -0.0911,0.0456 q -0.0911,-0.31891 -0.0911,-1.139 0,-0.82006 -0.0911,-1.0478 -0.0456,-0.22779 -0.50115,-0.86561 -0.18223,-0.2278 -0.18223,-0.41003 z m 1.0934,12.073 q 2.0501,0 6.1049,-0.36447 4.0547,-0.36447 6.0593,-0.36447 l -1.139,0.82006 q -0.63782,-0.36447 -1.0478,-0.45559 -0.36447,-0.0911 -1.5946,-0.27335 -0.50115,-0.0456 -2.9613,0.50114 -2.4602,0.54671 -3.0069,0.82006 z m -10.433,-11.071 q -0.31891,0.0911 -0.50114,0.45559 l 1.0478,1.1845 q -0.68338,-1.4123 -0.86562,-2.5057 -0.13667,-1.139 -0.13667,-3.0069 v -2.4146 q 0,-0.59226 0.31891,-3.0069 0.13667,-1.0478 0.13667,-1.7312 0,-0.13668 -0.27335,-0.50115 -0.27335,-0.36446 -0.27335,-0.59226 0,-0.50114 2.8246,-4.6925 2.688,-3.9636 2.9613,-4.1914 l 1.8224,-0.82006 q -1.2756,1.0934 -4.4192,5.6493 -3.1435,4.5103 -3.1435,5.467 l -0.0456,3.9636 q 0,1.3212 0.13668,3.918 0.18223,2.5968 0.41002,2.8246 z m -1.6857,-5.9226 q 0.27335,2.3235 0.68338,4.4192 0.41002,2.0501 0.63782,2.4146 l -0.2278,0.59226 q 2.4602,2.5968 4.8292,4.6014 3.098,2.6424 5.9226,4.0547 3.4169,1.7312 6.3782,1.7312 l 4.1914,-0.27335 q -1.139,-0.18223 -5.9682,-0.45558 -4.8292,-0.27336 -7.6538,-1.3668 -0.18224,-0.0911 -1.9135,-1.6857 -1.3212,-1.2301 -1.8679,-1.7768 -1.7768,-1.7768 -2.2779,-2.369 -1.4123,-1.6401 -1.5946,-2.7335 -0.13667,-1.0934 -0.13667,-2.0501 0,-0.86561 0.13667,-2.6424 0.13668,-1.7768 0.13668,-2.5968 z m 12.756,8.6561 8.2006,-0.0911 -0.82005,0.50114 -6.4693,0.0456 -0.91118,-0.45558 z m 4.6014,-10.843 10.57,0.31891 q -1.0023,0 -2.2324,0.0456 -1.1845,0 -2.6424,0 h -0.95673 q -1.139,0 -2.5968,-0.0456 -1.4579,-0.0456 -2.1413,-0.31891 z"
         id="path23"
         inkscape:connector-curvature="0"
         style="stroke-width:0.2175432" />
      <path
         d="m 345.75,204.47 -1.6401,-6.3782 h -8.1094 l -1.7312,6.3782 h -5.8771 l 7.0616,-26.515 h 9.1117 l 7.0616,26.515 z m -5.7404,-21.504 -2.9158,10.752 h 5.8315 z m -2.1413,-6.3326 q 0.18224,0 1.3212,0.13667 1.139,0.0911 1.7768,0.0911 0.59226,0 1.139,0 0.59226,-0.0456 1.1845,-0.0456 h 0.82005 l -0.0456,0.63782 q -0.18223,0 -2.9613,0.0911 -2.7335,0.0911 -3.9636,0.0911 h -2.5513 q 0.45559,-0.13668 0.91117,-0.36447 0.68338,-0.36447 0.72894,-0.59226 0.27335,-0.0456 0.68338,-0.0456 0.41003,0 0.95673,0 z m 7.0616,0.63782 1.139,0.5467 q 0.59226,2.8246 0.86561,4.237 0.54671,2.5513 1.0934,4.237 -1.0934,-2.6424 -1.7312,-4.4647 -0.86561,-2.4602 -1.3668,-4.5559 z m 5.7404,22.688 -0.18224,0.41003 q -0.0456,-0.59226 -0.0911,-1.2301 0,-4.2825 -1.0934,-7.4716 -0.45559,-1.3212 -1.8679,-4.647 l 0.95673,-0.36447 q 0.59226,3.5536 1.0478,5.467 0.22779,1.0023 2.2779,8.8839 l -1.0478,-1.0478 z m 1.0478,1.7312 q 0.36446,0.95673 0.95673,1.8223 0.95673,1.4123 1.0934,1.5946 l -1.0478,-0.18223 q -0.13667,-0.36447 -0.45558,-1.0478 -0.27335,-0.68338 -0.36447,-1.0934 -0.0911,-0.45558 -0.18223,-1.0934 z m -17.631,-22.962 0.68338,-0.36446 q -1.0023,3.5536 -2.1413,7.5172 -1.2756,4.4192 -2.2324,7.5172 -0.41003,1.3212 -2.369,7.5627 1.3212,-5.6037 2.8702,-11.162 0.45558,-1.6857 3.1891,-11.071 z m 6.2871,19.454 q 0.86562,0 1.959,0.18223 0.36447,0.0456 1.139,0.18223 l -0.18223,-0.45558 q -2.9158,0 -4.2825,0.50114 -0.31891,0.13668 -2.7791,1.1845 l 0.54671,-1.4579 z m -13.394,6.2415 q 0.86561,-1.0934 2.369,-7.0616 0.95673,-3.9636 1.9135,-7.9728 l -3.4625,15.809 z m 6.1048,-24.647 0.27335,-0.18223 q -0.7745,2.9158 -1.7312,6.196 -0.91117,3.2802 -2.0046,6.7427 0.68337,-3.2347 1.4123,-6.4693 1.0023,-4.0547 2.0501,-6.2871 z m 10.387,20 q 0.36447,-0.0456 1.0023,2.5513 0.68338,2.5968 1.0478,2.5968 0.86561,0 1.8223,0 0.95669,0 2.0046,-0.0456 1.3212,0 2.0957,0.0456 0.82006,0.0456 1.5946,0.27335 -0.50114,0.31891 -1.6857,0.41003 -1.139,0.0911 -2.0046,0.0911 l -5.1026,-0.13667 q -0.13668,0.0456 -0.18224,-0.13668 0,-0.18223 0,-0.63782 v -0.68338 q 0,-0.63782 -0.18223,-1.7768 -0.18224,-1.1845 -0.41003,-2.5513 z m -7.745,0.77449 q 0.18223,0.59226 0.18223,1.4579 0,0.5467 -0.0456,1.1845 -0.0455,0.63782 -0.0455,0.68338 l 0.13667,1.4123 h -1.8679 q -1.139,0 -3.7814,-0.0911 -2.6424,-0.0911 -2.8246,-0.0911 4.237,0 7.6538,-0.36447 0.13667,-0.45558 0.18223,-1.2301 0.0456,-0.77449 0.0456,-0.86561 0.18223,-0.0911 0.27335,-1.0023 0.0911,-0.95673 0.0911,-1.0934 z m 6.0137,-11.982 -1.2301,-2.5057 1.0934,4.237 z m 0.54671,4.5559 -0.54671,0.22779 -0.0456,-0.86561 v -0.27335 l 0.0456,-0.50115 z m -2.2779,-8.7017 -1.9135,8.7017 3.0524,-0.0456 0.0911,0.41003 h -3.6447 l 2.4146,-9.0662 z"
         id="path25"
         inkscape:connector-curvature="0"
         style="stroke-width:0.2175432" />
    </g>
  </g>
</svg>
