<?xml version="1.0" encoding="UTF-8" standalone="no"?>
<!-- Created with Inkscape (http://www.inkscape.org/) -->

<svg
   width="200"
   height="100"
   viewBox="0 0 200 100"
   version="1.1"
   id="svg1"
   inkscape:version="1.3.2 (091e20e, 2023-11-25, custom)"
   sodipodi:docname="logo_text-data.svg"
   xmlns:inkscape="http://www.inkscape.org/namespaces/inkscape"
   xmlns:sodipodi="http://sodipodi.sourceforge.net/DTD/sodipodi-0.dtd"
   xmlns="http://www.w3.org/2000/svg"
   xmlns:svg="http://www.w3.org/2000/svg">
  <sodipodi:namedview
     id="namedview1"
     pagecolor="#ffffff"
     bordercolor="#666666"
     borderopacity="1.0"
     inkscape:showpageshadow="2"
     inkscape:pageopacity="0.0"
     inkscape:pagecheckerboard="0"
     inkscape:deskcolor="#d1d1d1"
     inkscape:document-units="mm"
     inkscape:current-layer="layer1" />
  <defs
     id="defs1" />
  <g
     inkscape:label="Content"
     inkscape:groupmode="layer"
     id="layer1"
     transform="translate(-10.961861,-18.841953)">
    <g
       id="l-trapezoids"
       transform="matrix(0.15046596,0,0,0.15046596,14.117149,23.717405)"
       style="stroke-width:0.501305"
       inkscape:label="L Trapezoids">
      <path
         sodipodi:nodetypes="ccccc"
         inkscape:connector-curvature="0"
         id="top-trapezoid"
         d="m 234.39344,70.455884 -42.42641,83.842656 h -80.8927 l 42.42641,-83.842656 z"
         style="opacity:1;fill:#ff5500;fill-opacity:1;stroke:none;stroke-width:0.501305;stroke-linecap:round;stroke-linejoin:round;stroke-miterlimit:4;stroke-dasharray:none;stroke-dashoffset:0;stroke-opacity:1"
         inkscape:label="top trapezoid" />
      <path
         sodipodi:nodetypes="ccccc"
         inkscape:connector-curvature="0"
         id="bottom-trapezoid"
         d="m 191.96703,162.45587 42.42641,83.84266 h -80.8927 l -42.42641,-83.84266 z"
         style="opacity:1;fill:#ff5500;fill-opacity:1;stroke:none;stroke-width:0.501305;stroke-linecap:round;stroke-linejoin:round;stroke-miterlimit:4;stroke-dasharray:none;stroke-dashoffset:0;stroke-opacity:1"
         inkscape:label="bottom trapezoid" />
    </g>
    <text
       xml:space="preserve"
       style="font-style:normal;font-variant:normal;font-weight:normal;font-stretch:normal;font-size:23.9481px;line-height:1.25;font-family:'Minne Petat';-inkscape-font-specification:'Minne Petat';fill:#ff5500;fill-opacity:1;stroke-width:0.264583"
       x="48.570377"
       y="60.902145"
       id="exi-text"
       inkscape:label="EXI text"><desc
         id="desc2">Minnie Petat font: https://www.fontspace.com/minne-petat-font-f102862</desc><tspan
         sodipodi:role="line"
         id="tspan1"
         style="font-style:normal;font-variant:normal;font-weight:normal;font-stretch:normal;font-family:'Minne Petat';-inkscape-font-specification:'Minne Petat';fill:#ff5500;fill-opacity:1;stroke-width:0.264583"
         x="48.570377"
         y="60.902145">EXI</tspan></text>
    <text
       xml:space="preserve"
       style="font-size:27.058px;line-height:1;font-family:Zyzol;-inkscape-font-specification:Zyzol;letter-spacing:-2.12px;fill:#d70000;fill-opacity:1;stroke-width:0.264583"
       x="99.958519"
       y="62.028568"
       id="conga-text"
       inkscape:label="CONGA text"><desc
         id="desc1">Zyzol font: https://www.fontspace.com/zyzol-font-f67557
Letter Spacing adjusted to -2.12 px</desc><tspan
         sodipodi:role="line"
         id="tspan2"
         style="line-height:1;fill:#d70000;fill-opacity:1;stroke-width:0.264583;letter-spacing:-2.12px"
         x="99.958519"
         y="62.028568"
         dx="0">CONGA</tspan></text>
    <g
       id="l"
       transform="matrix(0.15046596,0,0,0.15046596,14.117149,66.305744)"
       style="stroke-width:0.501305"
       inkscape:label="L Shape">
      <path
         sodipodi:nodetypes="ccccc"
         inkscape:connector-curvature="0"
         id="l-top"
         d="m 234.39344,70.455884 -42.42641,83.842656 h -80.8927 l 42.42641,-83.842656 z"
         style="opacity:1;fill:#ff5500;fill-opacity:1;stroke:none;stroke-width:0.501305;stroke-linecap:round;stroke-linejoin:round;stroke-miterlimit:4;stroke-dasharray:none;stroke-dashoffset:0;stroke-opacity:1"
         inkscape:label="L top" />
      <path
         sodipodi:nodetypes="ccccc"
         inkscape:connector-curvature="0"
         id="l-bottom"
         d="m 191.96703,162.45587 42.42641,83.84266 h -80.8927 l -42.42641,-83.84266 z"
         style="opacity:1;fill:#ff5500;fill-opacity:1;stroke:none;stroke-width:0.501305;stroke-linecap:round;stroke-linejoin:round;stroke-miterlimit:4;stroke-dasharray:none;stroke-dashoffset:0;stroke-opacity:1"
         inkscape:label="L Bottom" />
    </g>
    <path
       style="font-size:23.9481px;line-height:1.25;font-family:'Minne Petat';-inkscape-font-specification:'Minne Petat';fill:#ff5500;stroke-width:0.264583"
       d="m 97.05417,83.52154 0.05101,19.84375 h -6.752822 c 0.07652,-3.10324 0.144535,-6.385029 0.20405,-9.845357 -0.0085,-3.409316 -0.08502,-6.742114 -0.229556,-9.998393 z"
       id="i"
       sodipodi:nodetypes="cccccc"
       inkscape:label="I letter path">
      <desc
         id="desc5">Minnie Petat font: https://www.fontspace.com/minne-petat-font-f102862
The left nodes are moved inward by one tick &amp; Height manually adjusted to match other letters</desc>
    </path>
    <path
       style="font-size:23.9481px;line-height:1.25;font-family:'Minne Petat';-inkscape-font-specification:'Minne Petat';fill:#ff5500;stroke-width:0.264583"
       d="m 80.000555,98.018341 -2.04728,5.346949 h -7.788816 -0.01144 l 6.061777,-9.876127 -6.06178,-9.967625 h 0.01144 6.667958 l 2.356088,4.775081 2.573397,-4.775081 h 7.788815 0.01144 l -6.576459,9.876126 6.576459,9.967626 h -0.01144 -6.667957 z"
       id="path2"
       sodipodi:nodetypes="ccccccccccccccccc"
       inkscape:label="X letter path">
      <desc
         id="desc4">Minnie Petat font: https://www.fontspace.com/minne-petat-font-f102862
Turned 90 degrees clockwise and made the upper &amp; lower nodes aligned &amp; Height manually adjusted to match other letters</desc>
    </path>
    <path
       style="font-size:23.9481px;line-height:1.25;font-family:'Minne Petat';-inkscape-font-specification:'Minne Petat';fill:#ff5500;stroke-width:0.264583"
       d="m 69.388317,83.52154 v 4.304239 H 56.800883 v 3.207309 h 10.368403 v 4.291487 H 56.800883 v 3.749228 h 12.421644 v 4.291487 h -19.04694 c 0.07652,-3.10324 0.144535,-6.385029 0.20405,-9.845357 -0.0085,-3.409316 -0.08502,-6.742114 -0.229555,-9.998393 z"
       id="text1-2"
       sodipodi:nodetypes="cccccccccccccc"
       inkscape:label="E letter path">
      <desc
         id="desc3">Minnie Petat font: https://www.fontspace.com/minne-petat-font-f102862
The upper, middle, lower, and left lines are each narrowed by one tick &amp; Height manually adjusted to match other letters</desc>
    </path>
    <path
       style="font-size:27.058px;line-height:1;font-family:Zyzol;-inkscape-font-specification:Zyzol;letter-spacing:-2.11667px;fill:#d70000;stroke-width:0.264583"
       d="m 182.15805,84.27012 c -0.65493,-0.968175 -3.81574,-0.854272 -4.58459,-0.455612 -0.62646,0.370185 -7.77387,16.686772 -7.77387,17.341712 -0.0285,0.79732 3.53099,2.39196 4.15746,2.07873 0.3417,-0.14238 0.68342,-1.22446 1.39531,-2.73367 0.85427,0.0285 5.866,0 8.51424,-0.0854 0.42713,1.02513 0.91122,1.9933 1.48074,2.933 0.28476,0.17085 4.24288,-1.02513 4.15745,-1.9933 -0.1139,-0.79732 -6.9196,-16.430492 -7.34674,-17.085433 z m -5.32495,11.931326 c 1.22445,-2.932998 2.76214,-6.549415 2.76214,-6.549415 0.48409,1.082078 2.1072,5.011727 2.81909,6.549415 -2.1072,-0.08542 -5.04019,0.02848 -5.58123,0 z"
       id="a"
       inkscape:label="A letter path">
      <desc
         id="desc6">Zyzol font: https://www.fontspace.com/zyzol-font-f67557
Moved left to decrease spacing between G and A &amp; Height manually adjusted to match other letters</desc>
    </path>
    <path
       style="font-size:27.058px;line-height:1;font-family:Zyzol;-inkscape-font-specification:Zyzol;letter-spacing:-2.11667px;fill:#d70000;stroke-width:0.264583"
       d="m 170.52596,95.127368 c -0.10826,-0.216525 -0.92023,-0.514248 -0.92023,-0.514248 l -5.0613,-1.921666 c 0,0 -0.9473,-0.351854 -1.05556,-0.18946 -0.6225,0.974366 -1.10969,2.029929 -1.43448,3.166689 -0.0541,0.18946 0.92024,0.649577 0.92024,0.649577 0.56838,0.297723 1.54275,0.784906 2.11112,1.082629 -0.37892,0.514248 -0.89317,0.893168 -1.51567,1.082628 -2.40886,0.811972 -5.08837,-0.920234 -5.65675,-3.356149 -0.59544,-2.517111 0.29773,-5.927392 3.03137,-6.739363 1.8134,-0.541314 3.76213,0 5.00715,1.407417 0,0 0.27066,0.37892 0.59545,0.37892 0.78491,-0.135328 1.48862,-0.405986 2.13819,-0.866103 0.24359,-0.135328 1.00143,-0.622511 1.35329,-0.893168 0.21652,-0.162395 0.13533,-0.37892 0.0812,-0.514249 -0.37891,-0.866103 -0.97436,-1.623944 -1.75927,-2.192324 -5.06128,-4.411712 -13.20806,-1.813403 -14.85908,4.790633 -3.22081,12.720889 14.31777,18.594149 17.10554,5.413143 0.0271,-0.351854 0.0271,-0.730774 -0.0812,-0.784906 z"
       id="g"
       inkscape:label="G letter path">
      <desc
         id="desc7">Zyzol font: https://www.fontspace.com/zyzol-font-f67557
Height manually adjusted to match other letters</desc>
    </path>
    <path
       style="font-size:27.058px;line-height:1;font-family:Zyzol;-inkscape-font-specification:Zyzol;letter-spacing:-2.11667px;fill:#d70000;stroke-width:0.264583"
       d="m 152.14701,83.828183 c -1.12366,-0.421372 -3.39907,-0.337098 -4.38227,-0.168549 -0.25282,0.05619 -0.25282,1.236023 -0.25282,1.236023 -0.0843,3.061969 -0.16855,6.264393 -0.25282,9.32636 -1.9664,-3.090058 -4.01708,-6.292483 -5.98348,-9.382542 0,0 -0.50564,-0.786561 -0.75847,-0.870835 -1.09556,-0.505646 -3.84853,-0.365189 -4.46653,-0.337097 -0.25283,0.02809 -0.28092,1.236023 -0.28092,1.236023 -0.22473,5.61829 -0.44946,11.377035 -0.64611,16.995324 0,0 -0.0562,1.12366 0.16855,1.17984 1.20793,0.30901 2.27541,0.42137 4.38227,0.22473 0.22473,0 0.25282,-1.23602 0.25282,-1.23602 0.14046,-3.146243 0.28092,-6.545308 0.39328,-9.691549 2.02259,3.146241 4.10135,6.43294 6.12394,9.579179 0,0 0.50564,0.75847 0.73037,0.89893 0.0281,0.0281 0.0562,0.0562 0.0843,0.0562 1.17984,0.28091 3.37097,0.25282 4.38227,0.16855 0.25282,-0.0281 0.25282,-1.23603 0.25282,-1.23603 0.14046,-5.562102 0.28091,-11.208482 0.44946,-16.770588 0,0 0,-1.123658 -0.19664,-1.207932 z"
       id="n"
       inkscape:label="N letter path">
      <desc
         id="desc8">Zyzol font: https://www.fontspace.com/zyzol-font-f67557
Height manually adjusted to match other letters</desc>
    </path>
    <path
       style="font-size:27.058px;line-height:1;font-family:Zyzol;-inkscape-font-specification:Zyzol;letter-spacing:-2.11667px;fill:#d70000;stroke-width:0.264583"
       d="m 134.10831,91.164371 c -0.89073,-6.875367 -8.26713,-9.57541 -13.94556,-6.17948 -4.23101,2.588702 -5.28876,8.601167 -3.50728,12.999175 1.67013,3.952644 6.48566,6.123804 10.60532,5.149564 5.51142,-1.2526 7.90528,-6.736187 6.84752,-11.969259 z m -4.62068,3.590778 c -0.30619,3.284588 -4.00832,4.787704 -6.73619,3.14541 -2.53303,-1.336103 -2.50519,-4.926881 -1.50311,-7.237227 0.72372,-1.558787 2.44951,-2.366017 4.11964,-2.338181 3.64645,-0.167013 4.45368,3.479436 4.11966,6.429998 z"
       id="o"
       inkscape:label="O letter path">
      <desc
         id="desc9">Zyzol font: https://www.fontspace.com/zyzol-font-f67557
Height manually adjusted to match other letters</desc>
    </path>
    <path
       style="font-size:27.058px;line-height:1;font-family:Zyzol;-inkscape-font-specification:Zyzol;letter-spacing:-2.11667px;fill:#d70000;stroke-width:0.264583"
       d="m 115.0375,97.845396 c -0.3897,-1.002105 -2.72795,-2.282572 -3.78572,-2.087718 -0.22269,0.02784 -0.64024,0.640234 -0.66807,0.66807 -0.55673,0.835087 -1.28047,1.530993 -2.17123,2.004209 -2.08772,1.002105 -4.20328,-0.334035 -5.17754,-2.282572 -1.75369,-3.563039 0.47321,-8.51789 4.20327,-8.350872 1.3083,0 2.5331,0.695906 3.20117,1.837192 0.13918,0.139181 0.33403,0.194853 0.52889,0.139181 1.05777,-0.167018 2.05988,-0.528889 2.97847,-1.085614 0.19486,-0.0835 0.27837,-0.306198 0.22269,-0.528888 -1.19695,-3.646549 -6.01262,-5.372396 -9.57566,-4.342455 -3.31252,0.723742 -5.817778,3.646549 -6.54152,6.903389 -2.811461,10.605612 10.60561,17.898702 16.56256,7.877657 0.16702,-0.306199 0.3062,-0.556725 0.22269,-0.751579 z"
       id="c"
       inkscape:label="C letter path">
      <desc
         id="desc10">Zyzol font: https://www.fontspace.com/zyzol-font-f67557
Height manually adjusted to match other letters</desc>
    </path>
  </g>
</svg>
