<?xml version="1.0" encoding="UTF-8" standalone="no"?>
<!-- Created with Inkscape (http://www.inkscape.org/) -->

<svg
   width="1280"
   height="640"
   viewBox="0 0 1280 640"
   version="1.1"
   id="svg1"
   xml:space="preserve"
   inkscape:version="1.3.2 (091e20e, 2023-11-25, custom)"
   sodipodi:docname="social.svg"
   inkscape:export-filename="social.jpg"
   inkscape:export-xdpi="96"
   inkscape:export-ydpi="96"
   xmlns:inkscape="http://www.inkscape.org/namespaces/inkscape"
   xmlns:sodipodi="http://sodipodi.sourceforge.net/DTD/sodipodi-0.dtd"
   xmlns:xlink="http://www.w3.org/1999/xlink"
   xmlns="http://www.w3.org/2000/svg"
   xmlns:svg="http://www.w3.org/2000/svg"><sodipodi:namedview
     id="namedview1"
     pagecolor="#ffffff"
     bordercolor="#666666"
     borderopacity="1.0"
     inkscape:showpageshadow="2"
     inkscape:pageopacity="0.0"
     inkscape:pagecheckerboard="0"
     inkscape:deskcolor="#d1d1d1"
     inkscape:document-units="px"
     inkscape:current-layer="layer1" /><defs
     id="defs1"><linearGradient
       id="linearGradient1"
       inkscape:collect="always"><stop
         style="stop-color:#d70000;stop-opacity:1;"
         offset="0"
         id="stop1" /><stop
         style="stop-color:#ff5500;stop-opacity:1;"
         offset="1"
         id="stop2" /></linearGradient><linearGradient
       inkscape:collect="always"
       xlink:href="#linearGradient1"
       id="linearGradient2"
       x1="538.0976"
       y1="311.94528"
       x2="596.48822"
       y2="327.591"
       gradientUnits="userSpaceOnUse" /></defs><g
     inkscape:label="Image"
     inkscape:groupmode="layer"
     id="layer1"><rect
       style="fill:url(#linearGradient2);fill-opacity:1;stroke-linejoin:round"
       id="rect1"
       width="1280"
       height="640"
       x="0"
       y="0"
       inkscape:label="background" /><g
       id="lexi"
       style="fill:#ff5500;fill-opacity:1;stroke-width:0.132233"
       transform="matrix(7.5624534,0,0,7.5624534,-193.14515,-361.65308)"><!-- fill="#f50" --><path
         d="M 49.385,76.907 43.0013,89.522 H 30.8293 L 37.213,76.907 Z"
         id="path1"
         style="fill:#ff5500;fill-opacity:1;stroke-width:0.132233" /><path
         d="m 43.002,90.75 6.3837,12.615 H 37.2137 L 30.83,90.75 Z"
         id="path2"
         style="fill:#ff5500;fill-opacity:1;stroke-width:0.132233" /><path
         d="m 97.054,83.522 0.05101,19.844 h -6.7528 c 0.07652,-3.1032 0.14454,-6.385 0.20405,-9.8454 -0.0085,-3.4093 -0.08502,-6.7421 -0.22956,-9.9984 z"
         id="path3"
         style="fill:#ff5500;fill-opacity:1;stroke-width:0.132233" /><path
         d="m 80.001,98.018 -2.0473,5.3469 h -7.8003 l 6.0618,-9.8761 -6.0618,-9.9676 h 6.6794 l 2.3561,4.7751 2.5734,-4.7751 h 7.8003 l -6.5765,9.8761 6.5765,9.9676 h -6.6794 z"
         id="path4"
         style="fill:#ff5500;fill-opacity:1;stroke-width:0.132233" /><path
         d="m 69.388,83.522 v 4.3042 H 56.801 v 3.2073 H 67.169 V 95.325 H 56.801 v 3.7492 h 12.422 v 4.2915 H 50.176 c 0.07652,-3.1032 0.14454,-6.385 0.20405,-9.8454 -0.0085,-3.4093 -0.08502,-6.7421 -0.22956,-9.9984 z"
         id="path5"
         style="fill:#ff5500;fill-opacity:1;stroke-width:0.132233" /></g><g
       id="conga"
       style="fill:#d70000;fill-opacity:1;stroke-width:0.132233"
       transform="matrix(7.5624534,0,0,7.5624534,-193.14515,-361.65308)"><!-- fill="#d70000" --><path
         d="m 182.16,84.27 c -0.65493,-0.96818 -3.8157,-0.85427 -4.5846,-0.45561 -0.62646,0.37018 -7.7739,16.687 -7.7739,17.342 -0.0285,0.79732 3.531,2.392 4.1575,2.0787 0.3417,-0.14238 0.68342,-1.2245 1.3953,-2.7337 0.85427,0.0285 5.866,0 8.5142,-0.0854 0.42713,1.0251 0.91122,1.9933 1.4807,2.933 0.28476,0.17085 4.2429,-1.0251 4.1574,-1.9933 -0.1139,-0.79732 -6.9196,-16.43 -7.3467,-17.085 z m -5.325,11.931 c 1.2244,-2.933 2.7621,-6.5494 2.7621,-6.5494 0.48409,1.0821 2.1072,5.0117 2.8191,6.5494 -2.1072,-0.08542 -5.0402,0.02848 -5.5812,0 z"
         id="path6"
         style="fill:#d70000;fill-opacity:1;stroke-width:0.132233" /><path
         d="m 170.53,95.127 c -0.10826,-0.21652 -0.92023,-0.51425 -0.92023,-0.51425 l -5.0613,-1.9217 c 0,0 -0.9473,-0.35185 -1.0556,-0.18946 -0.6225,0.97437 -1.1097,2.0299 -1.4345,3.1667 -0.0541,0.18946 0.92024,0.64958 0.92024,0.64958 0.56838,0.29772 1.5428,0.78491 2.1111,1.0826 -0.37892,0.51425 -0.89317,0.89317 -1.5157,1.0826 -2.4089,0.81197 -5.0884,-0.92023 -5.6568,-3.3561 -0.59544,-2.5171 0.29773,-5.9274 3.0314,-6.7394 1.8134,-0.54131 3.7621,0 5.0072,1.4074 0,0 0.27066,0.37892 0.59545,0.37892 0.78491,-0.13533 1.4886,-0.40599 2.1382,-0.8661 0.24359,-0.13533 1.0014,-0.62251 1.3533,-0.89317 0.21652,-0.1624 0.13533,-0.37892 0.0812,-0.51425 -0.37891,-0.8661 -0.97436,-1.6239 -1.7593,-2.1923 -5.0613,-4.4117 -13.208,-1.8134 -14.859,4.7906 -3.2208,12.721 14.318,18.594 17.106,5.4131 0.0271,-0.35185 0.0271,-0.73077 -0.0812,-0.78491 z"
         id="path7"
         style="fill:#d70000;fill-opacity:1;stroke-width:0.132233" /><path
         d="m 152.15,83.828 c -1.1237,-0.42137 -3.3991,-0.3371 -4.3823,-0.16855 -0.25282,0.05619 -0.25282,1.236 -0.25282,1.236 -0.0843,3.062 -0.16855,6.2644 -0.25282,9.3264 -1.9664,-3.0901 -4.0171,-6.2925 -5.9835,-9.3825 0,0 -0.50564,-0.78656 -0.75847,-0.87084 -1.0956,-0.50565 -3.8485,-0.36519 -4.4665,-0.3371 -0.25283,0.02809 -0.28092,1.236 -0.28092,1.236 -0.22473,5.6183 -0.44946,11.377 -0.64611,16.995 0,0 -0.0562,1.1237 0.16855,1.1798 1.2079,0.30901 2.2754,0.42137 4.3823,0.22473 0.22473,0 0.25282,-1.236 0.25282,-1.236 0.14046,-3.1462 0.28092,-6.5453 0.39328,-9.6915 2.0226,3.1462 4.1014,6.4329 6.1239,9.5792 0,0 0.50564,0.75847 0.73037,0.89893 0.0281,0.0281 0.0562,0.0562 0.0843,0.0562 1.1798,0.28091 3.371,0.25282 4.3823,0.16855 0.25282,-0.0281 0.25282,-1.236 0.25282,-1.236 0.14046,-5.5621 0.28091,-11.208 0.44946,-16.771 0,0 0,-1.1237 -0.19664,-1.2079 z"
         id="path8"
         style="fill:#d70000;fill-opacity:1;stroke-width:0.132233" /><path
         d="m 134.11,91.164 c -0.89073,-6.8754 -8.2671,-9.5754 -13.946,-6.1795 -4.231,2.5887 -5.2888,8.6012 -3.5073,12.999 1.6701,3.9526 6.4857,6.1238 10.605,5.1496 5.5114,-1.2526 7.9053,-6.7362 6.8475,-11.969 z m -4.6207,3.5908 c -0.30619,3.2846 -4.0083,4.7877 -6.7362,3.1454 -2.533,-1.3361 -2.5052,-4.9269 -1.5031,-7.2372 0.72372,-1.5588 2.4495,-2.366 4.1196,-2.3382 3.6464,-0.16701 4.4537,3.4794 4.1197,6.43 z"
         id="path9"
         style="fill:#d70000;fill-opacity:1;stroke-width:0.132233" /><path
         d="m 115.04,97.845 c -0.3897,-1.0021 -2.728,-2.2826 -3.7857,-2.0877 -0.22269,0.02784 -0.64024,0.64023 -0.66807,0.66807 -0.55673,0.83509 -1.2805,1.531 -2.1712,2.0042 -2.0877,1.0021 -4.2033,-0.33404 -5.1775,-2.2826 -1.7537,-3.563 0.47321,-8.5179 4.2033,-8.3509 1.3083,0 2.5331,0.69591 3.2012,1.8372 0.13918,0.13918 0.33403,0.19485 0.52889,0.13918 1.0578,-0.16702 2.0599,-0.52889 2.9785,-1.0856 0.19486,-0.0835 0.27837,-0.3062 0.22269,-0.52889 -1.197,-3.6465 -6.0126,-5.3724 -9.5757,-4.3425 -3.3125,0.72374 -5.8178,3.6465 -6.5415,6.9034 -2.8115,10.606 10.606,17.899 16.563,7.8777 0.16702,-0.3062 0.3062,-0.55672 0.22269,-0.75158 z"
         id="path10"
         style="fill:#d70000;fill-opacity:1;stroke-width:0.132233" /></g></g></svg>
